0
SECTION
2
HEADER
9
$INSUNITS
70
4
9
$ACADVER
1
AC1014
9
$HANDSEED
5
FFFF
0
ENDSEC
0
SECTION
2
TABLES
0
TABLE
2
VPORT
5
8
100
AcDbSymbolTable
0
ENDTAB
0
TABLE
2
LTYPE
5
5
100
AcDbSymbolTable
0
LTYPE
5
14
100
AcDbSymbolTableRecord
100
AcDbLinetypeTableRecord
2
BYBLOCK
70
0
0
LTYPE
5
15
100
AcDbSymbolTableRecord
100
AcDbLinetypeTableRecord
2
BYLAYER
70
0
0
ENDTAB
0
TABLE
2
LAYER
5
2
100
AcDbSymbolTable
70
2
0
LAYER
5
50
100
AcDbSymbolTableRecord
100
AcDbLayerTableRecord
2
0
70
0
6
CONTINUOUS
0
ENDTAB
0
TABLE
2
STYLE
5
3
100
AcDbSymbolTable
70
1
0
STYLE
5
11
100
AcDbSymbolTableRecord
100
AcDbTextStyleTableRecord
2
STANDARD
70
0
0
ENDTAB
0
TABLE
2
VIEW
5
6
100
AcDbSymbolTable
70
0
0
ENDTAB
0
TABLE
2
UCS
5
7
100
AcDbSymbolTable
70
0
0
ENDTAB
0
TABLE
2
APPID
5
9
100
AcDbSymbolTable
70
2
0
APPID
5
12
100
AcDbSymbolTableRecord
100
AcDbRegAppTableRecord
2
ACAD
70
0
0
ENDTAB
0
TABLE
2
DIMSTYLE
5
A
100
AcDbSymbolTable
70
1
0
ENDTAB
0
TABLE
2
BLOCK_RECORD
5
1
100
AcDbSymbolTable
70
1
0
BLOCK_RECORD
5
1F
100
AcDbSymbolTableRecord
100
AcDbBlockTableRecord
2
*MODEL_SPACE
0
BLOCK_RECORD
5
1B
100
AcDbSymbolTableRecord
100
AcDbBlockTableRecord
2
*PAPER_SPACE
0
ENDTAB
0
ENDSEC
0
SECTION
2
BLOCKS
0
BLOCK
5
20
100
AcDbEntity
100
AcDbBlockBegin
2
*MODEL_SPACE
0
ENDBLK
5
21
100
AcDbEntity
100
AcDbBlockEnd
0
BLOCK
5
1C
100
AcDbEntity
100
AcDbBlockBegin
2
*PAPER_SPACE
0
ENDBLK
5
1D
100
AcDbEntity
100
AcDbBlockEnd
0
ENDSEC
0
SECTION
2
ENTITIES
0
LWPOLYLINE
5
100
100
AcDbEntity
8
0
100
AcDbPolyline
90
12
70
1
43
0.0
10
0
20
0
10
125
20
2.9582283945787943e-30
10
125
20
180
10
250
20
180
10
250
20
1.356895338981239e-14
10
125
20
1.2122671864155943e-15
10
125
20
180
10
6.1851320593955807e-16
20
180
10
-4.2800739906498646e-15
20
305.00000000000006
10
124.99999999999997
20
305.00000000000006
10
125
20
180
10
-3.944304526105059e-30
20
180
0
LINE
5
101
100
AcDbEntity
8
0
100
AcDbLine
10
125
20
180
30
0
11
125.00000000000855
21
184.40000000000001
31
0
0
LINE
5
102
100
AcDbEntity
8
0
100
AcDbLine
10
125.00000000000855
20
184.40000000000001
30
0
11
135.41666666667521
21
184.39999999999986
31
0
0
LINE
5
103
100
AcDbEntity
8
0
100
AcDbLine
10
135.41666666667521
20
184.39999999999986
30
0
11
135.41666666667521
21
179.99999999999986
31
0
0
LINE
5
104
100
AcDbEntity
8
0
100
AcDbLine
10
135.41666666667521
20
179.99999999999986
30
0
11
145.83333333334187
21
179.99999999999986
31
0
0
LINE
5
105
100
AcDbEntity
8
0
100
AcDbLine
10
156.25000000000855
20
179.99999999999986
30
0
11
166.66666666667521
21
179.99999999999986
31
0
0
LINE
5
106
100
AcDbEntity
8
0
100
AcDbLine
10
156.25000000000855
20
184.39999999999986
30
0
11
156.25000000000855
21
179.99999999999986
31
0
0
LINE
5
107
100
AcDbEntity
8
0
100
AcDbLine
10
145.8333333333419
20
184.40000000000001
30
0
11
156.25000000000855
21
184.39999999999986
31
0
0
LINE
5
108
100
AcDbEntity
8
0
100
AcDbLine
10
145.83333333333334
20
180
30
0
11
145.8333333333419
21
184.40000000000001
31
0
0
LINE
5
109
100
AcDbEntity
8
0
100
AcDbLine
10
177.0833333333419
20
179.99999999999986
30
0
11
187.50000000000853
21
179.99999999999986
31
0
0
LINE
5
110
100
AcDbEntity
8
0
100
AcDbLine
10
177.0833333333419
20
184.39999999999986
30
0
11
177.0833333333419
21
179.99999999999986
31
0
0
LINE
5
111
100
AcDbEntity
8
0
100
AcDbLine
10
166.66666666667524
20
184.40000000000001
30
0
11
177.0833333333419
21
184.39999999999986
31
0
0
LINE
5
112
100
AcDbEntity
8
0
100
AcDbLine
10
166.66666666666669
20
180
30
0
11
166.66666666667524
21
184.40000000000001
31
0
0
LINE
5
113
100
AcDbEntity
8
0
100
AcDbLine
10
197.91666666667521
20
179.99999999999986
30
0
11
208.33333333334184
21
179.99999999999986
31
0
0
LINE
5
114
100
AcDbEntity
8
0
100
AcDbLine
10
197.91666666667521
20
184.39999999999986
30
0
11
197.91666666667521
21
179.99999999999986
31
0
0
LINE
5
115
100
AcDbEntity
8
0
100
AcDbLine
10
187.50000000000855
20
184.40000000000001
30
0
11
197.91666666667521
21
184.39999999999986
31
0
0
LINE
5
116
100
AcDbEntity
8
0
100
AcDbLine
10
187.5
20
180
30
0
11
187.50000000000855
21
184.40000000000001
31
0
0
LINE
5
117
100
AcDbEntity
8
0
100
AcDbLine
10
218.75000000000855
20
179.99999999999986
30
0
11
229.16666666667521
21
179.99999999999986
31
0
0
LINE
5
118
100
AcDbEntity
8
0
100
AcDbLine
10
218.75000000000855
20
184.39999999999986
30
0
11
218.75000000000855
21
179.99999999999986
31
0
0
LINE
5
119
100
AcDbEntity
8
0
100
AcDbLine
10
208.33333333334193
20
184.40000000000001
30
0
11
218.75000000000855
21
184.39999999999986
31
0
0
LINE
5
120
100
AcDbEntity
8
0
100
AcDbLine
10
208.33333333333337
20
180
30
0
11
208.33333333334193
21
184.40000000000001
31
0
0
LINE
5
121
100
AcDbEntity
8
0
100
AcDbLine
10
239.5833333333419
20
179.99999999999986
30
0
11
250.00000000000855
21
179.99999999999986
31
0
0
LINE
5
122
100
AcDbEntity
8
0
100
AcDbLine
10
239.58333333334193
20
184.39999999999986
30
0
11
239.5833333333419
21
179.99999999999986
31
0
0
LINE
5
123
100
AcDbEntity
8
0
100
AcDbLine
10
229.16666666667524
20
184.40000000000001
30
0
11
239.58333333334193
21
184.39999999999986
31
0
0
LINE
5
124
100
AcDbEntity
8
0
100
AcDbLine
10
229.16666666666669
20
180
30
0
11
229.16666666667524
21
184.40000000000001
31
0
0
LINE
5
125
100
AcDbEntity
8
0
100
AcDbLine
10
125
20
180
30
0
11
124.99999999998823
21
190.41666666666669
31
0
0
LINE
5
126
100
AcDbEntity
8
0
100
AcDbLine
10
124.99999999998823
20
190.41666666666669
30
0
11
129.39999999998827
21
190.41666666666654
31
0
0
LINE
5
127
100
AcDbEntity
8
0
100
AcDbLine
10
129.39999999998827
20
190.41666666666654
30
0
11
129.39999999998827
21
200.8333333333332
31
0
0
LINE
5
128
100
AcDbEntity
8
0
100
AcDbLine
10
129.39999999998827
20
200.8333333333332
30
0
11
124.99999999998828
21
200.8333333333334
31
0
0
LINE
5
129
100
AcDbEntity
8
0
100
AcDbLine
10
125
20
200.83333333333331
30
0
11
124.99999999998823
21
211.25
31
0
0
LINE
5
130
100
AcDbEntity
8
0
100
AcDbLine
10
124.99999999998823
20
211.25
30
0
11
129.39999999998827
21
211.24999999999986
31
0
0
LINE
5
131
100
AcDbEntity
8
0
100
AcDbLine
10
129.39999999998827
20
211.24999999999986
30
0
11
129.39999999998827
21
221.66666666666654
31
0
0
LINE
5
132
100
AcDbEntity
8
0
100
AcDbLine
10
129.39999999998827
20
221.66666666666654
30
0
11
124.99999999998828
21
221.66666666666671
31
0
0
LINE
5
133
100
AcDbEntity
8
0
100
AcDbLine
10
125
20
221.66666666666669
30
0
11
124.99999999998823
21
232.08333333333337
31
0
0
LINE
5
134
100
AcDbEntity
8
0
100
AcDbLine
10
124.99999999998823
20
232.08333333333337
30
0
11
129.39999999998827
21
232.0833333333332
31
0
0
LINE
5
135
100
AcDbEntity
8
0
100
AcDbLine
10
129.39999999998827
20
232.0833333333332
30
0
11
129.39999999998827
21
242.49999999999989
31
0
0
LINE
5
136
100
AcDbEntity
8
0
100
AcDbLine
10
129.39999999998827
20
242.49999999999989
30
0
11
124.99999999998828
21
242.50000000000006
31
0
0
LINE
5
137
100
AcDbEntity
8
0
100
AcDbLine
10
125
20
242.5
30
0
11
124.99999999998823
21
252.91666666666669
31
0
0
LINE
5
138
100
AcDbEntity
8
0
100
AcDbLine
10
124.99999999998823
20
252.91666666666669
30
0
11
129.39999999998827
21
252.91666666666654
31
0
0
LINE
5
139
100
AcDbEntity
8
0
100
AcDbLine
10
129.39999999998827
20
252.91666666666654
30
0
11
129.39999999998827
21
263.3333333333332
31
0
0
LINE
5
140
100
AcDbEntity
8
0
100
AcDbLine
10
129.39999999998827
20
263.3333333333332
30
0
11
124.99999999998828
21
263.33333333333337
31
0
0
LINE
5
141
100
AcDbEntity
8
0
100
AcDbLine
10
125
20
263.33333333333337
30
0
11
124.99999999998823
21
273.75000000000006
31
0
0
LINE
5
142
100
AcDbEntity
8
0
100
AcDbLine
10
124.99999999998823
20
273.75000000000006
30
0
11
129.39999999998827
21
273.74999999999989
31
0
0
LINE
5
143
100
AcDbEntity
8
0
100
AcDbLine
10
129.39999999998827
20
273.74999999999989
30
0
11
129.39999999998827
21
284.16666666666657
31
0
0
LINE
5
144
100
AcDbEntity
8
0
100
AcDbLine
10
129.39999999998827
20
284.16666666666657
30
0
11
124.99999999998828
21
284.16666666666674
31
0
0
LINE
5
145
100
AcDbEntity
8
0
100
AcDbLine
10
125
20
284.16666666666669
30
0
11
124.99999999998823
21
294.58333333333337
31
0
0
LINE
5
146
100
AcDbEntity
8
0
100
AcDbLine
10
124.99999999998823
20
294.58333333333337
30
0
11
129.39999999998827
21
294.5833333333332
31
0
0
LINE
5
147
100
AcDbEntity
8
0
100
AcDbLine
10
129.39999999998827
20
294.5833333333332
30
0
11
129.39999999998827
21
304.99999999999994
31
0
0
LINE
5
148
100
AcDbEntity
8
0
100
AcDbLine
10
129.39999999998827
20
304.99999999999994
30
0
11
124.99999999998828
21
305.00000000000006
31
0
0
LINE
5
149
100
AcDbEntity
8
0
100
AcDbLine
10
-114.58333333334193
20
184.39999999999986
30
0
11
-114.58333333334188
21
179.99999999999986
31
0
0
LINE
5
150
100
AcDbEntity
8
0
100
AcDbLine
10
-4.3999999999882711
20
221.66666666666654
30
0
11
1.1723955140041651e-11
21
221.66666666666671
31
0
0
LINE
5
151
100
AcDbEntity
8
0
100
AcDbLine
10
-104.16666666666669
20
180
30
0
11
-104.16666666667524
21
184.40000000000001
31
0
0
LINE
5
152
100
AcDbEntity
8
0
100
AcDbLine
10
-93.750000000008555
20
179.99999999999986
30
0
11
-104.16666666667521
21
179.99999999999986
31
0
0
LINE
5
153
100
AcDbEntity
8
0
100
AcDbLine
10
-4.3999999999882711
20
304.99999999999994
30
0
11
1.1723955140041655e-11
21
305.00000000000006
31
0
0
LINE
5
154
100
AcDbEntity
8
0
100
AcDbLine
10
-52.083333333341884
20
184.39999999999986
30
0
11
-52.083333333341884
21
179.99999999999986
31
0
0
LINE
5
155
100
AcDbEntity
8
0
100
AcDbLine
10
-8.5620399659092089e-12
20
184.40000000000001
30
0
11
-10.416666666675223
21
184.39999999999986
31
0
0
LINE
5
156
100
AcDbEntity
8
0
100
AcDbLine
10
-31.250000000008562
20
184.39999999999986
30
0
11
-31.250000000008544
21
179.99999999999986
31
0
0
LINE
5
157
100
AcDbEntity
8
0
100
AcDbLine
10
-72.916666666675212
20
184.39999999999986
30
0
11
-72.916666666675212
21
179.99999999999986
31
0
0
LINE
5
158
100
AcDbEntity
8
0
100
AcDbLine
10
0
20
263.33333333333337
30
0
11
1.175948227682966e-11
21
273.75000000000006
31
0
0
LINE
5
159
100
AcDbEntity
8
0
100
AcDbLine
10
0
20
242.5
30
0
11
1.1759482276829656e-11
21
252.91666666666669
31
0
0
LINE
5
160
100
AcDbEntity
8
0
100
AcDbLine
10
1.175948227682966e-11
20
211.25
30
0
11
-4.3999999999882533
21
211.24999999999986
31
0
0
LINE
5
161
100
AcDbEntity
8
0
100
AcDbLine
10
0
20
200.83333333333331
30
0
11
1.175948227682966e-11
21
211.25
31
0
0
LINE
5
162
100
AcDbEntity
8
0
100
AcDbLine
10
-83.333333333333357
20
180
30
0
11
-83.333333333341926
21
184.40000000000001
31
0
0
LINE
5
163
100
AcDbEntity
8
0
100
AcDbLine
10
-4.3999999999882711
20
200.8333333333332
30
0
11
1.1723955140041653e-11
21
200.8333333333334
31
0
0
LINE
5
164
100
AcDbEntity
8
0
100
AcDbLine
10
1.1759482276829656e-11
20
294.58333333333337
30
0
11
-4.3999999999882533
21
294.5833333333332
31
0
0
LINE
5
165
100
AcDbEntity
8
0
100
AcDbLine
10
-10.416666666675223
20
184.39999999999986
30
0
11
-10.416666666675205
21
179.99999999999986
31
0
0
LINE
5
166
100
AcDbEntity
8
0
100
AcDbLine
10
1.175948227682966e-11
20
273.75000000000006
30
0
11
-4.3999999999882533
21
273.74999999999989
31
0
0
LINE
5
167
100
AcDbEntity
8
0
100
AcDbLine
10
-62.5
20
180
30
0
11
-62.500000000008562
21
184.40000000000001
31
0
0
LINE
5
168
100
AcDbEntity
8
0
100
AcDbLine
10
1.1759482276829656e-11
20
232.08333333333337
30
0
11
-4.3999999999882533
21
232.0833333333332
31
0
0
LINE
5
169
100
AcDbEntity
8
0
100
AcDbLine
10
0
20
221.66666666666669
30
0
11
1.1759482276829656e-11
21
232.08333333333337
31
0
0
LINE
5
170
100
AcDbEntity
8
0
100
AcDbLine
10
-4.3999999999882711
20
263.3333333333332
30
0
11
1.1723955140041653e-11
21
263.33333333333337
31
0
0
LINE
5
171
100
AcDbEntity
8
0
100
AcDbLine
10
1.1759482276829656e-11
20
190.41666666666669
30
0
11
-4.3999999999882533
21
190.41666666666654
31
0
0
LINE
5
172
100
AcDbEntity
8
0
100
AcDbLine
10
0
20
180
30
0
11
-8.5620399659092089e-12
21
184.40000000000001
31
0
0
LINE
5
173
100
AcDbEntity
8
0
100
AcDbLine
10
-20.833333333333339
20
180
30
0
11
-20.833333333341901
21
184.40000000000001
31
0
0
LINE
5
174
100
AcDbEntity
8
0
100
AcDbLine
10
0
20
284.16666666666669
30
0
11
1.1759482276829656e-11
21
294.58333333333337
31
0
0
LINE
5
175
100
AcDbEntity
8
0
100
AcDbLine
10
-41.666666666666679
20
180
30
0
11
-41.666666666675241
21
184.40000000000001
31
0
0
LINE
5
176
100
AcDbEntity
8
0
100
AcDbLine
10
-72.916666666675212
20
179.99999999999986
30
0
11
-83.333333333341841
21
179.99999999999986
31
0
0
LINE
5
177
100
AcDbEntity
8
0
100
AcDbLine
10
0
20
180
30
0
11
1.1759482276829656e-11
21
190.41666666666669
31
0
0
LINE
5
178
100
AcDbEntity
8
0
100
AcDbLine
10
-4.3999999999882711
20
284.16666666666657
30
0
11
1.1723955140041651e-11
21
284.16666666666674
31
0
0
LINE
5
179
100
AcDbEntity
8
0
100
AcDbLine
10
1.1759482276829656e-11
20
252.91666666666669
30
0
11
-4.3999999999882533
21
252.91666666666654
31
0
0
LINE
5
180
100
AcDbEntity
8
0
100
AcDbLine
10
-114.58333333334188
20
179.99999999999986
30
0
11
-125.00000000000855
21
179.99999999999986
31
0
0
LINE
5
181
100
AcDbEntity
8
0
100
AcDbLine
10
-31.250000000008544
20
179.99999999999986
30
0
11
-41.666666666675205
21
179.99999999999986
31
0
0
LINE
5
182
100
AcDbEntity
8
0
100
AcDbLine
10
-4.3999999999882711
20
242.49999999999989
30
0
11
1.1723955140041655e-11
21
242.50000000000006
31
0
0
LINE
5
183
100
AcDbEntity
8
0
100
AcDbLine
10
-10.416666666675205
20
179.99999999999986
30
0
11
-20.833333333341866
21
179.99999999999986
31
0
0
LINE
5
184
100
AcDbEntity
8
0
100
AcDbLine
10
-4.3999999999882533
20
273.74999999999989
30
0
11
-4.3999999999882711
21
284.16666666666657
31
0
0
LINE
5
185
100
AcDbEntity
8
0
100
AcDbLine
10
-93.750000000008555
20
184.39999999999986
30
0
11
-93.750000000008555
21
179.99999999999986
31
0
0
LINE
5
186
100
AcDbEntity
8
0
100
AcDbLine
10
-41.666666666675241
20
184.40000000000001
30
0
11
-52.083333333341884
21
184.39999999999986
31
0
0
LINE
5
187
100
AcDbEntity
8
0
100
AcDbLine
10
-52.083333333341884
20
179.99999999999986
30
0
11
-62.500000000008527
21
179.99999999999986
31
0
0
LINE
5
188
100
AcDbEntity
8
0
100
AcDbLine
10
-20.833333333341901
20
184.40000000000001
30
0
11
-31.250000000008562
21
184.39999999999986
31
0
0
LINE
5
189
100
AcDbEntity
8
0
100
AcDbLine
10
-4.3999999999882533
20
294.5833333333332
30
0
11
-4.3999999999882711
21
304.99999999999994
31
0
0
LINE
5
190
100
AcDbEntity
8
0
100
AcDbLine
10
-4.3999999999882533
20
232.0833333333332
30
0
11
-4.3999999999882711
21
242.49999999999989
31
0
0
LINE
5
191
100
AcDbEntity
8
0
100
AcDbLine
10
-4.3999999999882533
20
211.24999999999986
30
0
11
-4.3999999999882711
21
221.66666666666654
31
0
0
LINE
5
192
100
AcDbEntity
8
0
100
AcDbLine
10
-62.500000000008562
20
184.40000000000001
30
0
11
-72.916666666675212
21
184.39999999999986
31
0
0
LINE
5
193
100
AcDbEntity
8
0
100
AcDbLine
10
-4.3999999999882533
20
190.41666666666654
30
0
11
-4.3999999999882711
21
200.8333333333332
31
0
0
LINE
5
194
100
AcDbEntity
8
0
100
AcDbLine
10
-104.16666666667524
20
184.40000000000001
30
0
11
-114.58333333334193
21
184.39999999999986
31
0
0
LINE
5
195
100
AcDbEntity
8
0
100
AcDbLine
10
-4.3999999999882533
20
252.91666666666654
30
0
11
-4.3999999999882711
21
263.3333333333332
31
0
0
LINE
5
196
100
AcDbEntity
8
0
100
AcDbLine
10
-83.333333333341926
20
184.40000000000001
30
0
11
-93.750000000008555
21
184.39999999999986
31
0
0
LINE
5
197
100
AcDbEntity
8
0
100
AcDbLine
10
-125
20
180
30
0
11
-125
21
-3.5527136788005009e-14
31
0
0
LINE
5
198
100
AcDbEntity
8
0
100
AcDbLine
10
-93.75
20
0
30
0
11
-104.16666666666664
21
0
31
0
0
LINE
5
199
100
AcDbEntity
8
0
100
AcDbLine
10
-104.16666666666669
20
0
30
0
11
-104.16666666666669
21
-4.4000000000000128
31
0
0
LINE
5
200
100
AcDbEntity
8
0
100
AcDbLine
10
239.58333333333331
20
0
30
0
11
250
21
0
31
0
0
LINE
5
201
100
AcDbEntity
8
0
100
AcDbLine
10
-114.58333333333336
20
-4.4000000000000128
30
0
11
-114.58333333333336
21
0
31
0
0
LINE
5
202
100
AcDbEntity
8
0
100
AcDbLine
10
197.91666666666663
20
0
30
0
11
208.33333333333331
21
0
31
0
0
LINE
5
203
100
AcDbEntity
8
0
100
AcDbLine
10
177.08333333333331
20
0
30
0
11
187.5
21
0
31
0
0
LINE
5
204
100
AcDbEntity
8
0
100
AcDbLine
10
197.91666666666669
20
-4.4000000000000128
30
0
11
197.91666666666663
21
0
31
0
0
LINE
5
205
100
AcDbEntity
8
0
100
AcDbLine
10
-1.7763568394002505e-14
20
0
30
0
11
1.1759482276829656e-11
21
-10.416666666666679
31
0
0
LINE
5
206
100
AcDbEntity
8
0
100
AcDbLine
10
-31.25
20
0
30
0
11
-41.666666666666643
21
0
31
0
0
LINE
5
207
100
AcDbEntity
8
0
100
AcDbLine
10
125
20
0
30
0
11
0
21
0
31
0
0
LINE
5
208
100
AcDbEntity
8
0
100
AcDbLine
10
-62.5
20
0
30
0
11
-62.5
21
-4.4000000000000128
31
0
0
LINE
5
209
100
AcDbEntity
8
0
100
AcDbLine
10
-10.416666666666679
20
0
30
0
11
-20.833333333333321
21
0
31
0
0
LINE
5
210
100
AcDbEntity
8
0
100
AcDbLine
10
218.75
20
0
30
0
11
229.16666666666663
21
0
31
0
0
LINE
5
211
100
AcDbEntity
8
0
100
AcDbLine
10
-104.16666666666669
20
-4.4000000000000128
30
0
11
-114.58333333333336
21
-4.4000000000000128
31
0
0
LINE
5
212
100
AcDbEntity
8
0
100
AcDbLine
10
156.25
20
-4.4000000000000128
30
0
11
156.25
21
0
31
0
0
LINE
5
213
100
AcDbEntity
8
0
100
AcDbLine
10
218.75000000000003
20
-4.4000000000000128
30
0
11
218.75
21
0
31
0
0
LINE
5
214
100
AcDbEntity
8
0
100
AcDbLine
10
124.99999999998823
20
-93.750000000000028
30
0
11
129.39999999998827
21
-93.749999999999886
31
0
0
LINE
5
215
100
AcDbEntity
8
0
100
AcDbLine
10
-4.3999999999882533
20
-52.083333333333215
30
0
11
-4.3999999999882711
21
-62.499999999999893
31
0
0
LINE
5
216
100
AcDbEntity
8
0
100
AcDbLine
10
-52.083333333333321
20
0
30
0
11
-62.5
21
0
31
0
0
LINE
5
217
100
AcDbEntity
8
0
100
AcDbLine
10
-20.833333333333357
20
0
30
0
11
-20.833333333333357
21
-4.4000000000000128
31
0
0
LINE
5
218
100
AcDbEntity
8
0
100
AcDbLine
10
239.58333333333337
20
-4.4000000000000128
30
0
11
239.58333333333331
21
0
31
0
0
LINE
5
219
100
AcDbEntity
8
0
100
AcDbLine
10
-114.58333333333336
20
0
30
0
11
-125
21
0
31
0
0
LINE
5
220
100
AcDbEntity
8
0
100
AcDbLine
10
-72.916666666666643
20
0
30
0
11
-83.333333333333314
21
0
31
0
0
LINE
5
221
100
AcDbEntity
8
0
100
AcDbLine
10
-72.916666666666643
20
-4.4000000000000128
30
0
11
-72.916666666666643
21
0
31
0
0
LINE
5
222
100
AcDbEntity
8
0
100
AcDbLine
10
-4.3999999999882533
20
-31.249999999999858
30
0
11
-4.3999999999882711
21
-41.666666666666536
31
0
0
LINE
5
223
100
AcDbEntity
8
0
100
AcDbLine
10
1.1759482276829656e-11
20
-72.916666666666686
30
0
11
-4.3999999999882533
21
-72.916666666666544
31
0
0
LINE
5
224
100
AcDbEntity
8
0
100
AcDbLine
10
-4.3999999999882711
20
-83.333333333333215
30
0
11
1.1723955140041653e-11
21
-83.3333333333334
31
0
0
LINE
5
225
100
AcDbEntity
8
0
100
AcDbLine
10
-20.833333333333357
20
-4.4000000000000128
30
0
11
-31.25
21
-4.4000000000000128
31
0
0
LINE
5
226
100
AcDbEntity
8
0
100
AcDbLine
10
-4.3999999999882711
20
-104.16666666666657
30
0
11
1.1723955140041651e-11
21
-104.16666666666671
31
0
0
LINE
5
227
100
AcDbEntity
8
0
100
AcDbLine
10
-1.7763568394002505e-14
20
-41.666666666666679
30
0
11
1.1759482276829656e-11
21
-52.083333333333357
31
0
0
LINE
5
228
100
AcDbEntity
8
0
100
AcDbLine
10
1.1759482276829656e-11
20
-114.58333333333336
30
0
11
-4.3999999999882533
21
-114.58333333333321
31
0
0
LINE
5
229
100
AcDbEntity
8
0
100
AcDbLine
10
-4.3999999999882711
20
-20.833333333333215
30
0
11
1.1723955140041653e-11
21
-20.833333333333393
31
0
0
LINE
5
230
100
AcDbEntity
8
0
100
AcDbLine
10
1.175948227682966e-11
20
-31.25
30
0
11
-4.3999999999882533
21
-31.249999999999858
31
0
0
LINE
5
231
100
AcDbEntity
8
0
100
AcDbLine
10
-4.3999999999882711
20
-41.666666666666536
30
0
11
1.1723955140041651e-11
21
-41.666666666666714
31
0
0
LINE
5
232
100
AcDbEntity
8
0
100
AcDbLine
10
-41.666666666666679
20
-4.4000000000000128
30
0
11
-52.083333333333321
21
-4.4000000000000128
31
0
0
LINE
5
233
100
AcDbEntity
8
0
100
AcDbLine
10
-3.5527136788005009e-14
20
-104.16666666666669
30
0
11
1.1759482276829656e-11
21
-114.58333333333336
31
0
0
LINE
5
234
100
AcDbEntity
8
0
100
AcDbLine
10
1.1759482276829656e-11
20
-52.083333333333357
30
0
11
-4.3999999999882533
21
-52.083333333333215
31
0
0
LINE
5
235
100
AcDbEntity
8
0
100
AcDbLine
10
1.175948227682966e-11
20
-93.750000000000028
30
0
11
-4.3999999999882533
21
-93.749999999999886
31
0
0
LINE
5
236
100
AcDbEntity
8
0
100
AcDbLine
10
-1.7763568394002505e-14
20
-4.4000000000000128
30
0
11
-10.416666666666679
21
-4.4000000000000128
31
0
0
LINE
5
237
100
AcDbEntity
8
0
100
AcDbLine
10
-83.333333333333357
20
-4.4000000000000128
30
0
11
-93.75
21
-4.4000000000000128
31
0
0
LINE
5
238
100
AcDbEntity
8
0
100
AcDbLine
10
208.33333333333337
20
0
30
0
11
208.33333333333331
21
-4.4000000000001549
31
0
0
LINE
5
239
100
AcDbEntity
8
0
100
AcDbLine
10
-1.7763568394002505e-14
20
-62.5
30
0
11
1.1759482276829656e-11
21
-72.916666666666686
31
0
0
LINE
5
240
100
AcDbEntity
8
0
100
AcDbLine
10
-1.7763568394002505e-14
20
-83.333333333333357
30
0
11
1.175948227682966e-11
21
-93.750000000000028
31
0
0
LINE
5
241
100
AcDbEntity
8
0
100
AcDbLine
10
-4.3999999999882533
20
-114.58333333333321
30
0
11
-4.3999999999882711
21
-124.99999999999993
31
0
0
LINE
5
242
100
AcDbEntity
8
0
100
AcDbLine
10
-4.3999999999882711
20
-62.499999999999893
30
0
11
1.1723955140041655e-11
21
-62.500000000000071
31
0
0
LINE
5
243
100
AcDbEntity
8
0
100
AcDbLine
10
1.1759482276829656e-11
20
-10.416666666666679
30
0
11
-4.3999999999882533
21
-10.416666666666536
31
0
0
LINE
5
244
100
AcDbEntity
8
0
100
AcDbLine
10
-4.3999999999882533
20
-72.916666666666544
30
0
11
-4.3999999999882711
21
-83.333333333333215
31
0
0
LINE
5
245
100
AcDbEntity
8
0
100
AcDbLine
10
-4.3999999999882533
20
-10.416666666666536
30
0
11
-4.3999999999882711
21
-20.833333333333215
31
0
0
LINE
5
246
100
AcDbEntity
8
0
100
AcDbLine
10
-62.5
20
-4.4000000000000128
30
0
11
-72.916666666666643
21
-4.4000000000000128
31
0
0
LINE
5
247
100
AcDbEntity
8
0
100
AcDbLine
10
-4.3999999999882533
20
-93.749999999999886
30
0
11
-4.3999999999882711
21
-104.16666666666657
31
0
0
LINE
5
248
100
AcDbEntity
8
0
100
AcDbLine
10
-31.25
20
-4.4000000000000128
30
0
11
-31.25
21
0
31
0
0
LINE
5
249
100
AcDbEntity
8
0
100
AcDbLine
10
-1.7763568394002505e-14
20
-20.833333333333321
30
0
11
1.175948227682966e-11
21
-31.25
31
0
0
LINE
5
250
100
AcDbEntity
8
0
100
AcDbLine
10
-4.3999999999882711
20
-124.99999999999993
30
0
11
1.1723955140041655e-11
21
-125.00000000000007
31
0
0
LINE
5
251
100
AcDbEntity
8
0
100
AcDbLine
10
-83.333333333333357
20
0
30
0
11
-83.333333333333357
21
-4.4000000000000128
31
0
0
LINE
5
252
100
AcDbEntity
8
0
100
AcDbLine
10
129.39999999998827
20
-10.416666666666536
30
0
11
129.39999999998827
21
-20.833333333333215
31
0
0
LINE
5
253
100
AcDbEntity
8
0
100
AcDbLine
10
229.16666666666669
20
-4.4000000000001549
30
0
11
239.58333333333337
21
-4.4000000000000128
31
0
0
LINE
5
254
100
AcDbEntity
8
0
100
AcDbLine
10
129.39999999998827
20
-72.916666666666544
30
0
11
129.39999999998827
21
-83.333333333333215
31
0
0
LINE
5
255
100
AcDbEntity
8
0
100
AcDbLine
10
-41.666666666666679
20
0
30
0
11
-41.666666666666679
21
-4.4000000000000128
31
0
0
LINE
5
256
100
AcDbEntity
8
0
100
AcDbLine
10
129.39999999998827
20
-114.58333333333321
30
0
11
129.39999999998827
21
-124.99999999999993
31
0
0
LINE
5
257
100
AcDbEntity
8
0
100
AcDbLine
10
166.66666666666669
20
0
30
0
11
166.66666666666669
21
-4.4000000000001549
31
0
0
LINE
5
258
100
AcDbEntity
8
0
100
AcDbLine
10
129.39999999998827
20
-93.749999999999886
30
0
11
129.39999999998827
21
-104.16666666666657
31
0
0
LINE
5
259
100
AcDbEntity
8
0
100
AcDbLine
10
129.39999999998827
20
-52.083333333333215
30
0
11
129.39999999998827
21
-62.499999999999893
31
0
0
LINE
5
260
100
AcDbEntity
8
0
100
AcDbLine
10
208.33333333333331
20
-4.4000000000001549
30
0
11
218.75000000000003
21
-4.4000000000000128
31
0
0
LINE
5
261
100
AcDbEntity
8
0
100
AcDbLine
10
145.83333333333331
20
-4.4000000000001549
30
0
11
156.25
21
-4.4000000000000128
31
0
0
LINE
5
262
100
AcDbEntity
8
0
100
AcDbLine
10
187.5
20
-4.4000000000001549
30
0
11
197.91666666666669
21
-4.4000000000000128
31
0
0
LINE
5
263
100
AcDbEntity
8
0
100
AcDbLine
10
129.39999999998827
20
-31.249999999999858
30
0
11
129.39999999998827
21
-41.666666666666536
31
0
0
LINE
5
264
100
AcDbEntity
8
0
100
AcDbLine
10
166.66666666666669
20
-4.4000000000001549
30
0
11
177.08333333333337
21
-4.4000000000000128
31
0
0
LINE
5
265
100
AcDbEntity
8
0
100
AcDbLine
10
124.99999999998823
20
-72.916666666666686
30
0
11
129.39999999998827
21
-72.916666666666544
31
0
0
LINE
5
266
100
AcDbEntity
8
0
100
AcDbLine
10
129.39999999998827
20
-41.666666666666536
30
0
11
124.99999999998828
21
-41.666666666666714
31
0
0
LINE
5
267
100
AcDbEntity
8
0
100
AcDbLine
10
125
20
-83.333333333333357
30
0
11
124.99999999998823
21
-93.750000000000028
31
0
0
LINE
5
268
100
AcDbEntity
8
0
100
AcDbLine
10
229.16666666666669
20
0
30
0
11
229.16666666666669
21
-4.4000000000001549
31
0
0
LINE
5
269
100
AcDbEntity
8
0
100
AcDbLine
10
129.39999999998827
20
-62.499999999999893
30
0
11
124.99999999998828
21
-62.500000000000071
31
0
0
LINE
5
270
100
AcDbEntity
8
0
100
AcDbLine
10
125
20
-62.5
30
0
11
124.99999999998823
21
-72.916666666666686
31
0
0
LINE
5
271
100
AcDbEntity
8
0
100
AcDbLine
10
125
20
0
30
0
11
124.99999999998823
21
-10.416666666666679
31
0
0
LINE
5
272
100
AcDbEntity
8
0
100
AcDbLine
10
124.99999999998823
20
-52.083333333333357
30
0
11
129.39999999998827
21
-52.083333333333215
31
0
0
LINE
5
273
100
AcDbEntity
8
0
100
AcDbLine
10
125
20
-41.666666666666679
30
0
11
124.99999999998823
21
-52.083333333333357
31
0
0
LINE
5
274
100
AcDbEntity
8
0
100
AcDbLine
10
-52.083333333333321
20
-4.4000000000000128
30
0
11
-52.083333333333321
21
0
31
0
0
LINE
5
275
100
AcDbEntity
8
0
100
AcDbLine
10
-1.7763568394002505e-14
20
-125
30
0
11
125
21
-125
31
0
0
LINE
5
276
100
AcDbEntity
8
0
100
AcDbLine
10
-10.416666666666679
20
-4.4000000000000128
30
0
11
-10.416666666666679
21
0
31
0
0
LINE
5
277
100
AcDbEntity
8
0
100
AcDbLine
10
129.39999999998827
20
-83.333333333333215
30
0
11
124.99999999998828
21
-83.3333333333334
31
0
0
LINE
5
278
100
AcDbEntity
8
0
100
AcDbLine
10
-1.7763568394002505e-14
20
0
30
0
11
-1.7763568394002505e-14
21
-4.4000000000000128
31
0
0
LINE
5
279
100
AcDbEntity
8
0
100
AcDbLine
10
124.99999999998823
20
-10.416666666666679
30
0
11
129.39999999998827
21
-10.416666666666536
31
0
0
LINE
5
280
100
AcDbEntity
8
0
100
AcDbLine
10
-1.7763568394002505e-14
20
0
30
0
11
-1.7763568394002505e-14
21
-125
31
0
0
LINE
5
281
100
AcDbEntity
8
0
100
AcDbLine
10
135.41666666666666
20
0
30
0
11
145.83333333333331
21
0
31
0
0
LINE
5
282
100
AcDbEntity
8
0
100
AcDbLine
10
129.39999999998827
20
-124.99999999999993
30
0
11
124.99999999998828
21
-125.00000000000007
31
0
0
LINE
5
283
100
AcDbEntity
8
0
100
AcDbLine
10
156.25
20
0
30
0
11
166.66666666666663
21
0
31
0
0
LINE
5
284
100
AcDbEntity
8
0
100
AcDbLine
10
125
20
-104.16666666666669
30
0
11
124.99999999998823
21
-114.58333333333336
31
0
0
LINE
5
285
100
AcDbEntity
8
0
100
AcDbLine
10
125
20
-4.4000000000001549
30
0
11
135.41666666666669
21
-4.4000000000000128
31
0
0
LINE
5
286
100
AcDbEntity
8
0
100
AcDbLine
10
124.99999999998823
20
-114.58333333333336
30
0
11
129.39999999998827
21
-114.58333333333321
31
0
0
LINE
5
287
100
AcDbEntity
8
0
100
AcDbLine
10
135.41666666666669
20
-4.4000000000000128
30
0
11
135.41666666666666
21
0
31
0
0
LINE
5
288
100
AcDbEntity
8
0
100
AcDbLine
10
145.83333333333334
20
0
30
0
11
145.83333333333331
21
-4.4000000000001549
31
0
0
LINE
5
289
100
AcDbEntity
8
0
100
AcDbLine
10
129.39999999998827
20
-104.16666666666657
30
0
11
124.99999999998828
21
-104.16666666666671
31
0
0
LINE
5
290
100
AcDbEntity
8
0
100
AcDbLine
10
177.08333333333337
20
-4.4000000000000128
30
0
11
177.08333333333331
21
0
31
0
0
LINE
5
291
100
AcDbEntity
8
0
100
AcDbLine
10
187.5
20
0
30
0
11
187.5
21
-4.4000000000001549
31
0
0
LINE
5
292
100
AcDbEntity
8
0
100
AcDbLine
10
124.99999999998823
20
-31.25
30
0
11
129.39999999998827
21
-31.249999999999858
31
0
0
LINE
5
293
100
AcDbEntity
8
0
100
AcDbLine
10
-93.75
20
-4.4000000000000128
30
0
11
-93.75
21
0
31
0
0
LINE
5
294
100
AcDbEntity
8
0
100
AcDbLine
10
125
20
0
30
0
11
125
21
-4.4000000000001549
31
0
0
LINE
5
295
100
AcDbEntity
8
0
100
AcDbLine
10
125
20
-20.833333333333321
30
0
11
124.99999999998823
21
-31.25
31
0
0
LINE
5
296
100
AcDbEntity
8
0
100
AcDbLine
10
129.39999999998827
20
-20.833333333333215
30
0
11
124.99999999998828
21
-20.833333333333393
31
0
0
LWPOLYLINE
5
297
100
AcDbEntity
8
0
100
AcDbPolyline
90
4
70
1
43
0.0
10
100.63658518257093
20
-48.874244137083352
10
24.304964000739439
20
-48.874244137083494
10
24.304964000739481
20
-80.477597181820713
10
100.63658518257098
20
-80.477597181820755
0
LWPOLYLINE
5
298
100
AcDbEntity
8
0
100
AcDbPolyline
90
4
70
1
43
0.0
10
182.35004185986426
20
118.81372888041552
10
182.35004185986435
20
61.03524951618639
10
213.95339490460162
20
61.035249516186418
10
213.95339490460162
20
118.81372888041557
0
LWPOLYLINE
5
299
100
AcDbEntity
8
0
100
AcDbPolyline
90
4
70
1
43
0.0
10
-69.802382614013737
20
60.874603062418167
10
-69.802382614013837
20
118.65308242664717
10
-101.40573565875103
20
118.65308242664713
10
-101.40573565875104
20
60.874603062418124
0
LINE
5
300
100
AcDbEntity
8
0
100
AcDbLine
10
60
20
0
30
0
11
62.5
21
0
31
0
0
LWPOLYLINE
5
301
100
AcDbEntity
8
0
100
AcDbPolyline
90
4
70
1
43
0.0
10
24.484500275178448
20
235.23912582167438
10
100.81612145700959
20
235.23912582167455
10
100.81612145700952
20
266.84247886641162
10
24.484500275178377
20
266.84247886641162
0
LINE
5
302
100
AcDbEntity
8
0
100
AcDbLine
10
95.361712179207359
20
-80.477595989727689
30
0
11
90.215029320740257
21
-80.477595989727718
31
0
0
SPLINE
5
303
100
AcDbEntity
8
0
100
AcDbSpline
70
0
71
2
72
6
73
3
74
0
42
0.000000001
43
0.0000000001
44
0.0000000001
40
0
40
0
40
0
40
1
40
1
40
1
10
90.215029320740257
20
-80.477595989727689
30
0
10
88.282631239914451
20
-80.477595989727689
30
0
10
87.153805098557029
20
-79.69315714123222
30
0
0
SPLINE
5
304
100
AcDbEntity
8
0
100
AcDbSpline
70
0
71
2
72
6
73
3
74
0
42
0.000000001
43
0.0000000001
44
0.0000000001
40
0
40
0
40
0
40
1
40
1
40
1
10
87.153805098557029
20
-79.69315714123222
30
0
10
85.83365162374929
20
-78.75565714123222
30
0
10
85.83365162374929
20
-77.014586393856732
30
0
0
SPLINE
5
305
100
AcDbEntity
8
0
100
AcDbSpline
70
0
71
2
72
6
73
3
74
0
42
0.000000001
43
0.0000000001
44
0.0000000001
40
0
40
0
40
0
40
1
40
1
40
1
10
85.83365162374929
20
-77.014586393856732
30
0
10
85.83365162374929
20
-75.560504858517376
30
0
10
86.77115162374929
20
-74.565606777691571
30
0
0
SPLINE
5
306
100
AcDbEntity
8
0
100
AcDbSpline
70
0
71
2
72
6
73
3
74
0
42
0.000000001
43
0.0000000001
44
0.0000000001
40
0
40
0
40
0
40
1
40
1
40
1
10
86.77115162374929
20
-74.565606777691571
30
0
10
87.039008936905418
20
-74.259484474682537
30
0
10
87.440794310593162
20
-74.01076025249931
30
0
0
SPLINE
5
307
100
AcDbEntity
8
0
100
AcDbSpline
70
0
71
2
72
6
73
3
74
0
42
0.000000001
43
0.0000000001
44
0.0000000001
40
0
40
0
40
0
40
1
40
1
40
1
10
87.440794310593162
20
-74.01076025249931
30
0
10
87.823447785400901
20
-73.762035434269634
30
0
10
88.320897421860252
20
-73.53244370701286
30
0
0
SPLINE
5
308
100
AcDbEntity
8
0
100
AcDbSpline
70
0
71
2
72
6
73
3
74
0
42
0.000000001
43
0.0000000001
44
0.0000000001
40
0
40
0
40
0
40
1
40
1
40
1
10
88.320897421860252
20
-73.53244370701286
30
0
10
86.350234351181541
20
-73.207188909077374
30
0
10
85.470131239914423
20
-71.982699100994793
30
0
0
SPLINE
5
309
100
AcDbEntity
8
0
100
AcDbSpline
70
0
71
2
72
6
73
3
74
0
42
0.000000001
43
0.0000000001
44
0.0000000001
40
0
40
0
40
0
40
1
40
1
40
1
10
85.470131239914423
20
-71.982699100994793
30
0
10
84.800488553070551
20
-71.045199100994807
30
0
10
84.800488553070551
20
-69.878106777691585
30
0
0
SPLINE
5
310
100
AcDbEntity
8
0
100
AcDbSpline
70
0
71
2
72
6
73
3
74
0
42
0.000000001
43
0.0000000001
44
0.0000000001
40
0
40
0
40
0
40
1
40
1
40
1
10
84.800488553070551
20
-69.878106777691585
30
0
10
84.800488553070551
20
-67.98397487881158
30
0
10
86.235438189529901
20
-66.721219484829632
30
0
0
SPLINE
5
311
100
AcDbEntity
8
0
100
AcDbSpline
70
0
71
2
72
6
73
3
74
0
42
0.000000001
43
0.0000000001
44
0.0000000001
40
0
40
0
40
0
40
1
40
1
40
1
10
86.235438189529901
20
-66.721219484829632
30
0
10
87.612988553070551
20
-65.477597181820599
30
0
10
89.583651623749262
20
-65.477597181820585
30
0
0
LINE
5
312
100
AcDbEntity
8
0
100
AcDbLine
10
89.583651623749262
20
-65.477597181820585
30
0
11
95.361712179207331
21
-65.477597181820585
31
0
0
LINE
5
313
100
AcDbEntity
8
0
100
AcDbLine
10
95.361712179207331
20
-65.477597181820585
30
0
11
95.361712179207359
21
-80.477595989727675
31
0
0
LINE
5
314
100
AcDbEntity
8
0
100
AcDbLine
10
90.310692391418968
20
-79.157443707012845
30
0
11
93.850233159088646
21
-79.157443707012845
31
0
0
LINE
5
315
100
AcDbEntity
8
0
100
AcDbLine
10
93.850233159088646
20
-79.157443707012845
30
0
11
93.850233159088646
21
-74.010760252499296
31
0
0
LINE
5
316
100
AcDbEntity
8
0
100
AcDbLine
10
93.850233159088617
20
-74.010760252499296
30
0
11
90.999468169235712
21
-74.01076025249931
31
0
0
SPLINE
5
317
100
AcDbEntity
8
0
100
AcDbSpline
70
0
71
2
72
6
73
3
74
0
42
0.000000001
43
0.0000000001
44
0.0000000001
40
0
40
0
40
0
40
1
40
1
40
1
10
90.99946816923574
20
-74.010760252499296
30
0
10
89.277529320740257
20
-74.01076025249931
30
0
10
88.359161219620262
20
-74.776066010021893
30
0
0
SPLINE
5
318
100
AcDbEntity
8
0
100
AcDbSpline
70
0
71
2
72
6
73
3
74
0
42
0.000000001
43
0.0000000001
44
0.0000000001
40
0
40
0
40
0
40
1
40
1
40
1
10
88.359161219620262
20
-74.776066010021893
30
0
10
87.440794310593162
20
-75.560504858517376
30
0
10
87.440794310593162
20
-76.784994070553509
30
0
0
SPLINE
5
319
100
AcDbEntity
8
0
100
AcDbSpline
70
0
71
2
72
6
73
3
74
0
42
0.000000001
43
0.0000000001
44
0.0000000001
40
0
40
0
40
0
40
1
40
1
40
1
10
87.440794310593162
20
-76.784994070553509
30
0
10
87.440794310593162
20
-77.741627161526409
30
0
10
88.091305098557029
20
-78.430402939343182
30
0
0
SPLINE
5
320
100
AcDbEntity
8
0
100
AcDbSpline
70
0
71
2
72
6
73
3
74
0
42
0.000000001
43
0.0000000001
44
0.0000000001
40
0
40
0
40
0
40
1
40
1
40
1
10
88.091305098557029
20
-78.430402939343182
30
0
10
88.875742754959617
20
-79.15744370701286
30
0
10
90.310692391418968
20
-79.157443707012845
30
0
0
LINE
5
321
100
AcDbEntity
8
0
100
AcDbLine
10
90.578549704575067
20
-72.690606777691556
30
0
11
93.850233159088617
21
-72.690606777691556
31
0
0
LINE
5
322
100
AcDbEntity
8
0
100
AcDbLine
10
93.850233159088617
20
-72.690606777691556
30
0
11
93.850233159088617
21
-66.797750656628324
31
0
0
LINE
5
323
100
AcDbEntity
8
0
100
AcDbLine
10
93.850233159088617
20
-66.797750656628324
30
0
11
90.215029320740229
21
-66.797750656628338
31
0
0
SPLINE
5
324
100
AcDbEntity
8
0
100
AcDbSpline
70
0
71
2
72
6
73
3
74
0
42
0.000000001
43
0.0000000001
44
0.0000000001
40
0
40
0
40
0
40
1
40
1
40
1
10
90.215029320740229
20
-66.797750656628324
30
0
10
88.569620451950556
20
-66.797750656628338
30
0
10
87.51732548239184
20
-67.620454494976727
30
0
0
SPLINE
5
325
100
AcDbEntity
8
0
100
AcDbSpline
70
0
71
2
72
6
73
3
74
0
42
0.000000001
43
0.0000000001
44
0.0000000001
40
0
40
0
40
0
40
1
40
1
40
1
10
87.51732548239184
20
-67.620454494976727
30
0
10
86.465029320740229
20
-68.500556414150921
30
0
10
86.465029320740229
20
-69.858974878811566
30
0
0
SPLINE
5
326
100
AcDbEntity
8
0
100
AcDbSpline
70
0
71
2
72
6
73
3
74
0
42
0.000000001
43
0.0000000001
44
0.0000000001
40
0
40
0
40
0
40
1
40
1
40
1
10
86.465029320740229
20
-69.858974878811566
30
0
10
86.465029320740229
20
-71.236525242352215
30
0
10
87.536457381271845
20
-71.963566010021893
30
0
0
SPLINE
5
327
100
AcDbEntity
8
0
100
AcDbSpline
70
0
71
2
72
6
73
3
74
0
42
0.000000001
43
0.0000000001
44
0.0000000001
40
0
40
0
40
0
40
1
40
1
40
1
10
87.536457381271845
20
-71.963566010021893
30
0
10
88.588753542923456
20
-72.690606777691571
30
0
10
90.578549704575067
20
-72.690606777691556
30
0
0
SPLINE
5
328
100
AcDbEntity
8
0
100
AcDbSpline
70
0
71
2
72
6
73
3
74
0
42
0.000000001
43
0.0000000001
44
0.0000000001
40
0
40
0
40
0
40
1
40
1
40
1
10
69.333654246353632
20
-65.2288729596374
30
0
10
71.93569501402331
20
-65.2288729596374
30
0
10
73.88722499372912
20
-67.256934111141916
30
0
0
SPLINE
5
329
100
AcDbEntity
8
0
100
AcDbSpline
70
0
71
2
72
6
73
3
74
0
42
0.000000001
43
0.0000000001
44
0.0000000001
40
0
40
0
40
0
40
1
40
1
40
1
10
73.88722499372912
20
-67.256934111141916
30
0
10
76.030083498978144
20
-69.457189505123836
30
0
10
76.030083498978158
20
-72.93933159592126
30
0
0
SPLINE
5
330
100
AcDbEntity
8
0
100
AcDbSpline
70
0
71
2
72
6
73
3
74
0
42
0.000000001
43
0.0000000001
44
0.0000000001
40
0
40
0
40
0
40
1
40
1
40
1
10
76.030083498978158
20
-72.93933159592126
30
0
10
76.030083498978172
20
-76.268412535214168
30
0
10
74.02115424635366
20
-78.564330999874826
30
0
0
SPLINE
5
331
100
AcDbEntity
8
0
100
AcDbSpline
70
0
71
2
72
6
73
3
74
0
42
0.000000001
43
0.0000000001
44
0.0000000001
40
0
40
0
40
0
40
1
40
1
40
1
10
74.02115424635366
20
-78.564330999874826
30
0
10
72.06962426664785
20
-80.726321404003855
30
0
10
69.391053519272361
20
-80.726321404003855
30
0
0
SPLINE
5
332
100
AcDbEntity
8
0
100
AcDbSpline
70
0
71
2
72
6
73
3
74
0
42
0.000000001
43
0.0000000001
44
0.0000000001
40
0
40
0
40
0
40
1
40
1
40
1
10
69.391053519272361
20
-80.726321404003855
30
0
10
66.674216589951072
20
-80.726321404003869
30
0
10
64.722686610245262
20
-78.602597181820641
30
0
0
SPLINE
5
333
100
AcDbEntity
8
0
100
AcDbSpline
70
0
71
2
72
6
73
3
74
0
42
0.000000001
43
0.0000000001
44
0.0000000001
40
0
40
0
40
0
40
1
40
1
40
1
10
64.722686610245262
20
-78.602597181820641
30
0
10
62.713757357620743
20
-76.364076797985803
30
0
10
62.713757357620736
20
-72.958464090847741
30
0
0
SPLINE
5
334
100
AcDbEntity
8
0
100
AcDbSpline
70
0
71
2
72
6
73
3
74
0
42
0.000000001
43
0.0000000001
44
0.0000000001
40
0
40
0
40
0
40
1
40
1
40
1
10
62.713757357620736
20
-72.958464090847741
30
0
10
62.713757357620722
20
-69.418923323178063
30
0
10
64.894879660629755
20
-67.21866792919613
30
0
0
SPLINE
5
335
100
AcDbEntity
8
0
100
AcDbSpline
70
0
71
2
72
6
73
3
74
0
42
0.000000001
43
0.0000000001
44
0.0000000001
40
0
40
0
40
0
40
1
40
1
40
1
10
64.894879660629755
20
-67.21866792919613
30
0
10
66.827278933548456
20
-65.2288729596374
30
0
10
69.333654246353632
20
-65.2288729596374
30
0
0
SPLINE
5
336
100
AcDbEntity
8
0
100
AcDbSpline
70
0
71
2
72
6
73
3
74
0
42
0.000000001
43
0.0000000001
44
0.0000000001
40
0
40
0
40
0
40
1
40
1
40
1
10
69.448450408005243
20
-66.64468950512385
30
0
10
67.324727377914911
20
-66.64468950512385
30
0
10
65.832379660629755
20
-68.424026434445153
30
0
0
SPLINE
5
337
100
AcDbEntity
8
0
100
AcDbSpline
70
0
71
2
72
6
73
3
74
0
42
0.000000001
43
0.0000000001
44
0.0000000001
40
0
40
0
40
0
40
1
40
1
40
1
10
65.832379660629755
20
-68.424026434445153
30
0
10
64.320898852371712
20
-70.241627161526452
30
0
10
64.320898852371712
20
-72.958464090847741
30
0
0
SPLINE
5
338
100
AcDbEntity
8
0
100
AcDbSpline
70
0
71
2
72
6
73
3
74
0
42
0.000000001
43
0.0000000001
44
0.0000000001
40
0
40
0
40
0
40
1
40
1
40
1
10
64.320898852371712
20
-72.958464090847741
30
0
10
64.320898852371727
20
-74.278616969609033
30
0
10
64.684420428299461
20
-75.407443707012902
30
0
0
SPLINE
5
339
100
AcDbEntity
8
0
100
AcDbSpline
70
0
71
2
72
6
73
3
74
0
42
0.000000001
43
0.0000000001
44
0.0000000001
40
0
40
0
40
0
40
1
40
1
40
1
10
64.684420428299461
20
-75.407443707012902
30
0
10
65.047942004227195
20
-76.536269848370324
30
0
10
65.774980387711082
20
-77.454637949490319
30
0
0
SPLINE
5
340
100
AcDbEntity
8
0
100
AcDbSpline
70
0
71
2
72
6
73
3
74
0
42
0.000000001
43
0.0000000001
44
0.0000000001
40
0
40
0
40
0
40
1
40
1
40
1
10
65.774980387711082
20
-77.454637949490319
30
0
10
67.229061923050438
20
-79.310504858517405
30
0
10
69.371920428299461
20
-79.310504858517405
30
0
0
SPLINE
5
341
100
AcDbEntity
8
0
100
AcDbSpline
70
0
71
2
72
6
73
3
74
0
42
0.000000001
43
0.0000000001
44
0.0000000001
40
0
40
0
40
0
40
1
40
1
40
1
10
69.371920428299461
20
-79.310504858517405
30
0
10
71.495643458389793
20
-79.310504858517405
30
0
10
72.968858084702049
20
-77.454637949490305
30
0
0
SPLINE
5
342
100
AcDbEntity
8
0
100
AcDbSpline
70
0
71
2
72
6
73
3
74
0
42
0.000000001
43
0.0000000001
44
0.0000000001
40
0
40
0
40
0
40
1
40
1
40
1
10
72.968858084702049
20
-77.454637949490305
30
0
10
74.422939620041404
20
-75.637036030316111
30
0
10
74.42293962004139
20
-72.920199100994822
30
0
0
SPLINE
5
343
100
AcDbEntity
8
0
100
AcDbSpline
70
0
71
2
72
6
73
3
74
0
42
0.000000001
43
0.0000000001
44
0.0000000001
40
0
40
0
40
0
40
1
40
1
40
1
10
74.42293962004139
20
-72.920199100994822
30
0
10
74.422939620041376
20
-70.088566010021921
30
0
10
72.89232810499621
20
-68.309230272793528
30
0
0
SPLINE
5
344
100
AcDbEntity
8
0
100
AcDbSpline
70
0
71
2
72
6
73
3
74
0
42
0.000000001
43
0.0000000001
44
0.0000000001
40
0
40
0
40
0
40
1
40
1
40
1
10
72.89232810499621
20
-68.309230272793528
30
0
10
71.457379660629755
20
-66.64468950512385
30
0
10
69.448450408005243
20
-66.64468950512385
30
0
0
LINE
5
345
100
AcDbEntity
8
0
100
AcDbLine
10
53.885951838516746
20
-80.47759598972776
30
0
11
52.068348727249656
21
-80.47759598972776
31
0
0
LINE
5
346
100
AcDbEntity
8
0
100
AcDbLine
10
52.068348727249656
20
-80.47759598972776
30
0
11
48.069625697159317
21
-74.584739868664542
31
0
0
LINE
5
347
100
AcDbEntity
8
0
100
AcDbLine
10
48.069625697159317
20
-74.584739868664542
30
0
11
44.070902667068992
21
-80.477595989727774
31
0
0
LINE
5
348
100
AcDbEntity
8
0
100
AcDbLine
10
44.070902667068992
20
-80.477595989727774
30
0
11
42.176771960281883
21
-80.477595989727774
31
0
0
LINE
5
349
100
AcDbEntity
8
0
100
AcDbLine
10
42.176771960281883
20
-80.477595989727774
30
0
11
47.151261172318009
21
-73.513311212086478
31
0
0
LINE
5
350
100
AcDbEntity
8
0
100
AcDbLine
10
47.151261172318009
20
-73.513311212086478
30
0
11
41.39233191969349
21
-65.47759718182067
31
0
0
LINE
5
351
100
AcDbEntity
8
0
100
AcDbLine
10
41.39233191969349
20
-65.47759718182067
30
0
11
43.362994990372201
21
-65.47759718182067
31
0
0
LINE
5
352
100
AcDbEntity
8
0
100
AcDbLine
10
43.362994990372201
20
-65.47759718182067
30
0
11
48.069625697159317
21
-72.422749464535514
31
0
0
LINE
5
353
100
AcDbEntity
8
0
100
AcDbLine
10
48.069625697159317
20
-72.422749464535514
30
0
11
52.776256403946419
21
-65.477597181820656
31
0
0
LINE
5
354
100
AcDbEntity
8
0
100
AcDbLine
10
52.776256403946419
20
-65.477597181820656
30
0
11
54.670391879105111
21
-65.477597181820656
31
0
0
LINE
5
355
100
AcDbEntity
8
0
100
AcDbLine
10
54.670391879105111
20
-65.477597181820656
30
0
11
48.949728808426407
21
-73.513311212086478
31
0
0
LINE
5
356
100
AcDbEntity
8
0
100
AcDbLine
10
48.949728808426407
20
-73.513311212086478
30
0
11
53.885951838516746
21
-80.47759598972776
31
0
0
LINE
5
357
100
AcDbEntity
8
0
100
AcDbLine
10
31.282635531448875
20
-80.477597181820698
30
0
11
29.656358561539207
21
-80.477597181820698
31
0
0
LINE
5
358
100
AcDbEntity
8
0
100
AcDbLine
10
29.656358561539207
20
-80.477597181820713
30
0
11
29.8476894712682
21
-69.265862171673618
31
0
0
LINE
5
359
100
AcDbEntity
8
0
100
AcDbLine
10
29.847689471268197
20
-69.265862171673604
30
0
11
31.110440096878548
21
-69.265862171673604
31
0
0
LINE
5
360
100
AcDbEntity
8
0
100
AcDbLine
10
31.110440096878548
20
-69.265862171673604
30
0
11
31.282635531448872
21
-80.477597181820713
31
0
0
SPLINE
5
361
100
AcDbEntity
8
0
100
AcDbSpline
70
0
71
2
72
6
73
3
74
0
42
0.000000001
43
0.0000000001
44
0.0000000001
40
0
40
0
40
0
40
1
40
1
40
1
10
30.517330966019173
20
-65.420199100994893
30
0
10
30.976515612625619
20
-65.420199100994893
30
0
10
31.225238642715951
20
-65.802852575802632
30
0
0
SPLINE
5
362
100
AcDbEntity
8
0
100
AcDbSpline
70
0
71
2
72
6
73
3
74
0
42
0.000000001
43
0.0000000001
44
0.0000000001
40
0
40
0
40
0
40
1
40
1
40
1
10
31.225238642715951
20
-65.802852575802632
30
0
10
31.454830966019173
20
-66.204637949490376
30
0
10
31.454830966019173
20
-66.702086393856831
30
0
0
SPLINE
5
363
100
AcDbEntity
8
0
100
AcDbSpline
70
0
71
2
72
6
73
3
74
0
42
0.000000001
43
0.0000000001
44
0.0000000001
40
0
40
0
40
0
40
1
40
1
40
1
10
31.454830966019173
20
-66.702086393856831
30
0
10
31.454830966019173
20
-67.276066010021992
30
0
10
31.206103167557259
20
-67.696984474682637
30
0
0
SPLINE
5
364
100
AcDbEntity
8
0
100
AcDbSpline
70
0
71
2
72
6
73
3
74
0
42
0.000000001
43
0.0000000001
44
0.0000000001
40
0
40
0
40
0
40
1
40
1
40
1
10
31.206103167557259
20
-67.696984474682637
30
0
10
30.957380137466927
20
-68.117902939343281
30
0
10
30.459929308914681
20
-68.117902939343281
30
0
0
SPLINE
5
365
100
AcDbEntity
8
0
100
AcDbSpline
70
0
71
2
72
6
73
3
74
0
42
0.000000001
43
0.0000000001
44
0.0000000001
40
0
40
0
40
0
40
1
40
1
40
1
10
30.459929308914681
20
-68.117902939343281
30
0
10
30.019880137466927
20
-68.117902939343281
30
0
10
29.809423289322396
20
-67.696984474682637
30
0
0
SPLINE
5
366
100
AcDbEntity
8
0
100
AcDbSpline
70
0
71
2
72
6
73
3
74
0
42
0.000000001
43
0.0000000001
44
0.0000000001
40
0
40
0
40
0
40
1
40
1
40
1
10
29.809423289322396
20
-67.696984474682637
30
0
10
29.579830966019173
20
-67.295199100994893
30
0
10
29.579830966019173
20
-66.797749464535542
30
0
0
SPLINE
5
367
100
AcDbEntity
8
0
100
AcDbSpline
70
0
71
2
72
6
73
3
74
0
42
0.000000001
43
0.0000000001
44
0.0000000001
40
0
40
0
40
0
40
1
40
1
40
1
10
29.579830966019173
20
-66.797749464535542
30
0
10
29.579830966019173
20
-66.223771040463276
30
0
10
29.828553996109505
20
-65.821984474682637
30
0
0
SPLINE
5
368
100
AcDbEntity
8
0
100
AcDbSpline
70
0
71
2
72
6
73
3
74
0
42
0.000000001
43
0.0000000001
44
0.0000000001
40
0
40
0
40
0
40
1
40
1
40
1
10
29.828553996109505
20
-65.821984474682637
30
0
10
30.077277026199837
20
-65.420199100994893
30
0
10
30.517330966019173
20
-65.420199100994893
30
0
0
LINE
5
369
100
AcDbEntity
8
0
100
AcDbLine
10
213.95339371250867
20
123.76823623133718
30
0
11
213.95339371250867
21
122.27588911009848
31
0
0
LINE
5
370
100
AcDbEntity
8
0
100
AcDbLine
10
213.95339371250867
20
122.27588911009848
30
0
11
207.41002739952802
21
122.27588911009848
31
0
0
LINE
5
371
100
AcDbEntity
8
0
100
AcDbLine
10
207.41002739952802
20
122.27588911009848
30
0
11
207.41002739952802
21
114.02971554947912
31
0
0
LINE
5
372
100
AcDbEntity
8
0
100
AcDbLine
10
207.41002739952802
20
114.02971554947912
30
0
11
213.95339371250867
21
114.02971554947912
31
0
0
LINE
5
373
100
AcDbEntity
8
0
100
AcDbLine
10
213.95339371250867
20
114.02971554947912
30
0
11
213.95339371250867
21
112.53736902428686
31
0
0
LINE
5
374
100
AcDbEntity
8
0
100
AcDbLine
10
213.95339371250867
20
112.53736902428686
30
0
11
198.95339490460157
21
112.53736902428685
31
0
0
LINE
5
375
100
AcDbEntity
8
0
100
AcDbLine
10
198.95339490460157
20
112.53736902428685
30
0
11
198.95339490460157
21
114.02971554947911
31
0
0
LINE
5
376
100
AcDbEntity
8
0
100
AcDbLine
10
198.95339490460157
20
114.02971554947911
30
0
11
206.14727200554609
21
114.02971554947911
31
0
0
LINE
5
377
100
AcDbEntity
8
0
100
AcDbLine
10
206.14727200554609
20
114.02971554947912
30
0
11
206.14727200554609
21
122.27588911009848
31
0
0
LINE
5
378
100
AcDbEntity
8
0
100
AcDbLine
10
206.14727200554609
20
122.27588911009848
30
0
11
198.95339490460157
21
122.27588911009848
31
0
0
LINE
5
379
100
AcDbEntity
8
0
100
AcDbLine
10
198.95339490460157
20
122.27588911009846
30
0
11
198.95339490460157
21
123.76823623133717
31
0
0
LINE
5
380
100
AcDbEntity
8
0
100
AcDbLine
10
198.95339490460157
20
123.76823623133717
30
0
11
213.95339371250867
21
123.76823623133718
31
0
0
LINE
5
381
100
AcDbEntity
8
0
100
AcDbLine
10
213.97252680348157
20
110.0080340023142
30
0
11
213.97252680348157
21
100.67130018426001
31
0
0
LINE
5
382
100
AcDbEntity
8
0
100
AcDbLine
10
213.9725268034816
20
100.67130018426001
30
0
11
212.65237332867386
21
100.67130018426001
31
0
0
LINE
5
383
100
AcDbEntity
8
0
100
AcDbLine
10
212.65237332867386
20
100.67130018426001
30
0
11
212.65237332867386
21
108.49655438614904
31
0
0
LINE
5
384
100
AcDbEntity
8
0
100
AcDbLine
10
212.65237332867383
20
108.49655438614904
30
0
11
207.46742488430738
21
108.49655438614904
31
0
0
LINE
5
385
100
AcDbEntity
8
0
100
AcDbLine
10
207.46742488430738
20
108.49655438614904
30
0
11
207.46742488430738
21
100.95828939629614
31
0
0
LINE
5
386
100
AcDbEntity
8
0
100
AcDbLine
10
207.46742488430741
20
100.95828939629614
30
0
11
206.14727200554611
21
100.95828939629614
31
0
0
LINE
5
387
100
AcDbEntity
8
0
100
AcDbLine
10
206.14727200554611
20
100.95828939629614
30
0
11
206.14727200554611
21
108.49655438614904
31
0
0
LINE
5
388
100
AcDbEntity
8
0
100
AcDbLine
10
206.14727200554609
20
108.49655438614904
30
0
11
200.27354837940931
21
108.49655438614904
31
0
0
LINE
5
389
100
AcDbEntity
8
0
100
AcDbLine
10
200.27354837940931
20
108.49655438614903
30
0
11
200.27354837940931
21
100.61390329552708
31
0
0
LINE
5
390
100
AcDbEntity
8
0
100
AcDbLine
10
200.27354837940933
20
100.61390329552708
30
0
11
198.95339490460159
21
100.61390329552708
31
0
0
LINE
5
391
100
AcDbEntity
8
0
100
AcDbLine
10
198.95339490460159
20
100.61390329552708
30
0
11
198.95339490460159
21
110.00803400231419
31
0
0
LINE
5
392
100
AcDbEntity
8
0
100
AcDbLine
10
198.95339490460157
20
110.00803400231419
30
0
11
213.97252680348157
21
110.0080340023142
31
0
0
LINE
5
393
100
AcDbEntity
8
0
100
AcDbLine
10
213.9533937125087
20
98.31415821267187
30
0
11
213.9533937125087
21
93.358802091608638
31
0
0
SPLINE
5
394
100
AcDbEntity
8
0
100
AcDbSpline
70
0
71
2
72
6
73
3
74
0
42
0.000000001
43
0.0000000001
44
0.0000000001
40
0
40
0
40
0
40
1
40
1
40
1
10
213.9533937125087
20
93.358802091608638
30
0
10
213.9533937125087
20
91.369005929957027
30
0
10
213.30288411663773
20
90.067984354029292
30
0
0
SPLINE
5
395
100
AcDbEntity
8
0
100
AcDbSpline
70
0
71
2
72
6
73
3
74
0
42
0.000000001
43
0.0000000001
44
0.0000000001
40
0
40
0
40
0
40
1
40
1
40
1
10
213.30288411663773
20
90.067984354029292
30
0
10
212.38451720761063
20
88.250383626947993
30
0
10
210.2416598944545
20
88.250383626947993
30
0
0
SPLINE
5
396
100
AcDbEntity
8
0
100
AcDbSpline
70
0
71
2
72
6
73
3
74
0
42
0.000000001
43
0.0000000001
44
0.0000000001
40
0
40
0
40
0
40
1
40
1
40
1
10
210.2416598944545
20
88.250383626947993
30
0
10
208.76844526814224
20
88.250383626947993
30
0
10
207.83094526814224
20
89.073087465296382
30
0
0
SPLINE
5
397
100
AcDbEntity
8
0
100
AcDbSpline
70
0
71
2
72
6
73
3
74
0
42
0.000000001
43
0.0000000001
44
0.0000000001
40
0
40
0
40
0
40
1
40
1
40
1
10
207.83094526814224
20
89.073087465296382
30
0
10
206.89344526814224
20
89.895791303644771
30
0
10
206.33859874294998
20
91.713394414911861
30
0
0
SPLINE
5
398
100
AcDbEntity
8
0
100
AcDbSpline
70
0
71
2
72
6
73
3
74
0
42
0.000000001
43
0.0000000001
44
0.0000000001
40
0
40
0
40
0
40
1
40
1
40
1
10
206.33859874294998
20
91.713394414911861
30
0
10
206.20467008637192
20
91.388139020929927
30
0
10
206.07074142979386
20
91.139413606653804
30
0
0
SPLINE
5
399
100
AcDbEntity
8
0
100
AcDbSpline
70
0
71
2
72
6
73
3
74
0
42
0.000000001
43
0.0000000001
44
0.0000000001
40
0
40
0
40
0
40
1
40
1
40
1
10
206.07074142979386
20
91.139413606653804
30
0
10
205.95594646023514
20
90.890688192377681
30
0
10
205.80288411663773
20
90.73762823296606
30
0
0
SPLINE
5
400
100
AcDbEntity
8
0
100
AcDbSpline
70
0
71
2
72
6
73
3
74
0
42
0.000000001
43
0.0000000001
44
0.0000000001
40
0
40
0
40
0
40
1
40
1
40
1
10
205.80288411663773
20
90.73762823296606
30
0
10
205.22890450047257
20
90.067984354029292
30
0
10
204.11921025799515
20
89.685332071314448
30
0
0
LINE
5
401
100
AcDbEntity
8
0
100
AcDbLine
10
204.11921025799515
20
89.685332071314448
30
0
11
198.95339490460159
21
87.772068273554439
31
0
0
LINE
5
402
100
AcDbEntity
8
0
100
AcDbLine
10
198.95339490460159
20
87.772068273554424
30
0
11
198.95339490460159
21
89.474872838984112
31
0
0
LINE
5
403
100
AcDbEntity
8
0
100
AcDbLine
10
198.95339490460159
20
89.474872838984112
30
0
11
202.09115029858353
21
90.469769727717022
31
0
0
SPLINE
5
404
100
AcDbEntity
8
0
100
AcDbSpline
70
0
71
2
72
6
73
3
74
0
42
0.000000001
43
0.0000000001
44
0.0000000001
40
0
40
0
40
0
40
1
40
1
40
1
10
202.09115029858353
20
90.469769727717022
30
0
10
204.44446565197708
20
91.254209768305415
30
0
10
205.17150641964676
20
92.115179788599605
30
0
0
SPLINE
5
405
100
AcDbEntity
8
0
100
AcDbSpline
70
0
71
2
72
6
73
3
74
0
42
0.000000001
43
0.0000000001
44
0.0000000001
40
0
40
0
40
0
40
1
40
1
40
1
10
205.17150641964676
20
92.115179788599605
30
0
10
205.86028219746353
20
92.861351263056392
30
0
10
205.86028219746353
20
94.583291303644771
30
0
0
LINE
5
406
100
AcDbEntity
8
0
100
AcDbLine
10
205.86028219746353
20
94.583291303644771
30
0
11
205.86028219746353
21
96.802679788599605
31
0
0
LINE
5
407
100
AcDbEntity
8
0
100
AcDbLine
10
205.86028219746353
20
96.802679788599605
30
0
11
198.95339490460159
21
96.802679788599605
31
0
0
LINE
5
408
100
AcDbEntity
8
0
100
AcDbLine
10
198.95339490460159
20
96.80267978859959
30
0
11
198.95339490460159
21
98.314158212671856
31
0
0
LINE
5
409
100
AcDbEntity
8
0
100
AcDbLine
10
198.95339490460159
20
98.314158212671856
30
0
11
213.9533937125087
21
98.31415821267187
31
0
0
LINE
5
410
100
AcDbEntity
8
0
100
AcDbLine
10
212.63324142979386
20
93.071812879572505
30
0
11
212.63324142979386
21
96.802679788599605
31
0
0
LINE
5
411
100
AcDbEntity
8
0
100
AcDbLine
10
212.63324142979386
20
96.802679788599605
30
0
11
207.04650701569321
21
96.802679788599605
31
0
0
LINE
5
412
100
AcDbEntity
8
0
100
AcDbLine
10
207.04650701569321
20
96.802679788599605
30
0
11
207.04650701569321
21
94.50676132393896
31
0
0
SPLINE
5
413
100
AcDbEntity
8
0
100
AcDbSpline
70
0
71
2
72
6
73
3
74
0
42
0.000000001
43
0.0000000001
44
0.0000000001
40
0
40
0
40
0
40
1
40
1
40
1
10
207.04650701569321
20
94.50676132393896
30
0
10
207.04650701569321
20
93.129209768305415
30
0
10
207.29523123787644
20
92.191709768305415
30
0
0
SPLINE
5
414
100
AcDbEntity
8
0
100
AcDbSpline
70
0
71
2
72
6
73
3
74
0
42
0.000000001
43
0.0000000001
44
0.0000000001
40
0
40
0
40
0
40
1
40
1
40
1
10
207.29523123787644
20
92.191709768305415
30
0
10
207.56308855103256
20
91.235076677332515
30
0
10
208.13706816719773
20
90.641965162287349
30
0
0
SPLINE
5
415
100
AcDbEntity
8
0
100
AcDbSpline
70
0
71
2
72
6
73
3
74
0
42
0.000000001
43
0.0000000001
44
0.0000000001
40
0
40
0
40
0
40
1
40
1
40
1
10
208.13706816719773
20
90.641965162287349
30
0
10
208.50058855103256
20
90.240179788599605
30
0
10
209.03630258129837
20
89.991454374323482
30
0
0
SPLINE
5
416
100
AcDbEntity
8
0
100
AcDbSpline
70
0
71
2
72
6
73
3
74
0
42
0.000000001
43
0.0000000001
44
0.0000000001
40
0
40
0
40
0
40
1
40
1
40
1
10
209.03630258129837
20
89.991454374323482
30
0
10
209.57201720761063
20
89.723598253260249
30
0
10
210.12686373280289
20
89.723598253260249
30
0
0
SPLINE
5
417
100
AcDbEntity
8
0
100
AcDbSpline
70
0
71
2
72
6
73
3
74
0
42
0.000000001
43
0.0000000001
44
0.0000000001
40
0
40
0
40
0
40
1
40
1
40
1
10
210.12686373280289
20
89.723598253260249
30
0
10
211.1791598944545
20
89.723598253260249
30
0
10
211.86793448017838
20
90.584568273554439
30
0
0
SPLINE
5
418
100
AcDbEntity
8
0
100
AcDbSpline
70
0
71
2
72
6
73
3
74
0
42
0.000000001
43
0.0000000001
44
0.0000000001
40
0
40
0
40
0
40
1
40
1
40
1
10
211.86793448017838
20
90.584568273554439
30
0
10
212.63324142979386
20
91.522065889368648
30
0
10
212.63324142979386
20
93.071812879572505
30
0
0
LINE
5
419
100
AcDbEntity
8
0
100
AcDbLine
10
213.9725268034816
20
85.644516241083736
30
0
11
213.9725268034816
21
76.307780038843745
31
0
0
LINE
5
420
100
AcDbEntity
8
0
100
AcDbLine
10
213.97252680348163
20
76.307780038843759
30
0
11
212.65237332867389
21
76.307780038843759
31
0
0
LINE
5
421
100
AcDbEntity
8
0
100
AcDbLine
10
212.65237332867386
20
76.307780038843759
30
0
11
212.65237332867386
21
84.13303781701147
31
0
0
LINE
5
422
100
AcDbEntity
8
0
100
AcDbLine
10
212.65237332867386
20
84.13303781701147
30
0
11
207.46742488430741
21
84.13303781701147
31
0
0
LINE
5
423
100
AcDbEntity
8
0
100
AcDbLine
10
207.46742488430741
20
84.13303781701147
30
0
11
207.46742488430741
21
76.594769250879878
31
0
0
LINE
5
424
100
AcDbEntity
8
0
100
AcDbLine
10
207.46742488430741
20
76.594769250879878
30
0
11
206.14727200554611
21
76.594769250879878
31
0
0
LINE
5
425
100
AcDbEntity
8
0
100
AcDbLine
10
206.14727200554611
20
76.594769250879878
30
0
11
206.14727200554611
21
84.13303781701147
31
0
0
LINE
5
426
100
AcDbEntity
8
0
100
AcDbLine
10
206.14727200554611
20
84.13303781701147
30
0
11
200.27354837940933
21
84.13303781701147
31
0
0
LINE
5
427
100
AcDbEntity
8
0
100
AcDbLine
10
200.27354837940933
20
84.133037817011456
30
0
11
200.27354837940933
21
76.250387918482403
31
0
0
LINE
5
428
100
AcDbEntity
8
0
100
AcDbLine
10
200.27354837940933
20
76.250387918482417
30
0
11
198.95339490460159
21
76.250387918482417
31
0
0
LINE
5
429
100
AcDbEntity
8
0
100
AcDbLine
10
198.95339490460159
20
76.250387918482417
30
0
11
198.95339490460159
21
85.644516241083721
31
0
0
LINE
5
430
100
AcDbEntity
8
0
100
AcDbLine
10
198.95339490460159
20
85.644516241083721
30
0
11
213.9725268034816
21
85.644516241083736
31
0
0
LINE
5
431
100
AcDbEntity
8
0
100
AcDbLine
10
213.85773064183002
20
70.640694391260752
30
0
11
213.85773064183002
21
68.918749582300791
31
0
0
LINE
5
432
100
AcDbEntity
8
0
100
AcDbLine
10
213.85773064183002
20
68.918749582300791
30
0
11
209.0171694903255
21
71.673857461939448
31
0
0
LINE
5
433
100
AcDbEntity
8
0
100
AcDbLine
10
209.0171694903255
20
71.673857461939448
30
0
11
209.0171694903255
21
72.477423440943355
31
0
0
LINE
5
434
100
AcDbEntity
8
0
100
AcDbLine
10
209.0171694903255
20
72.477423440943355
30
0
11
213.85773064183002
21
70.640694391260737
31
0
0
LINE
5
435
100
AcDbEntity
8
0
100
AcDbLine
10
212.90109874295001
20
56.497837793360361
30
0
11
210.96870066212421
21
56.497837793360361
31
0
0
SPLINE
5
436
100
AcDbEntity
8
0
100
AcDbSpline
70
0
71
2
72
6
73
3
74
0
42
0.000000001
43
0.0000000001
44
0.0000000001
40
0
40
0
40
0
40
1
40
1
40
1
10
210.96870066212421
20
56.497837793360361
30
0
10
211.38961912678485
20
56.995283853541025
30
0
10
211.71487452076678
20
57.511870157251963
30
0
0
SPLINE
5
437
100
AcDbEntity
8
0
100
AcDbSpline
70
0
71
2
72
6
73
3
74
0
42
0.000000001
43
0.0000000001
44
0.0000000001
40
0
40
0
40
0
40
1
40
1
40
1
10
211.71487452076678
20
57.511870157251963
30
0
10
212.04012872265582
20
58.009316217432627
30
0
10
212.25058795498614
20
58.506771814356455
30
0
0
SPLINE
5
438
100
AcDbEntity
8
0
100
AcDbSpline
70
0
71
2
72
6
73
3
74
0
42
0.000000001
43
0.0000000001
44
0.0000000001
40
0
40
0
40
0
40
1
40
1
40
1
10
212.25058795498614
20
58.506771814356455
30
0
10
212.7863025812984
20
59.654728662500986
30
0
10
212.7863025812984
20
60.840946924219736
30
0
0
SPLINE
5
439
100
AcDbEntity
8
0
100
AcDbSpline
70
0
71
2
72
6
73
3
74
0
42
0.000000001
43
0.0000000001
44
0.0000000001
40
0
40
0
40
0
40
1
40
1
40
1
10
212.7863025812984
20
60.840946924219736
30
0
10
212.7863025812984
20
62.333294641504892
30
0
10
212.04012872265582
20
63.309065591822275
30
0
0
SPLINE
5
440
100
AcDbEntity
8
0
100
AcDbSpline
70
0
71
2
72
6
73
3
74
0
42
0.000000001
43
0.0000000001
44
0.0000000001
40
0
40
0
40
0
40
1
40
1
40
1
10
212.04012872265582
20
63.309065591822275
30
0
10
211.27482296513324
20
64.303957712183603
30
0
10
210.22252680348163
20
64.303957712183589
30
0
0
SPLINE
5
441
100
AcDbEntity
8
0
100
AcDbSpline
70
0
71
2
72
6
73
3
74
0
42
0.000000001
43
0.0000000001
44
0.0000000001
40
0
40
0
40
0
40
1
40
1
40
1
10
210.22252680348163
20
64.303957712183589
30
0
10
208.69191469239001
20
64.303957712183589
30
0
10
207.92660893486743
20
62.046305429468745
30
0
0
SPLINE
5
442
100
AcDbEntity
8
0
100
AcDbSpline
70
0
71
2
72
6
73
3
74
0
42
0.000000001
43
0.0000000001
44
0.0000000001
40
0
40
0
40
0
40
1
40
1
40
1
10
207.92660893486743
20
62.046305429468745
30
0
10
207.56308855103259
20
60.994011652002925
30
0
10
207.21870066212421
20
59.960848581324214
30
0
0
SPLINE
5
443
100
AcDbEntity
8
0
100
AcDbSpline
70
0
71
2
72
6
73
3
74
0
42
0.000000001
43
0.0000000001
44
0.0000000001
40
0
40
0
40
0
40
1
40
1
40
1
10
207.21870066212421
20
59.960848581324214
30
0
10
206.89344586418872
20
58.908554803858394
30
0
10
206.54905797528033
20
57.8371207828623
30
0
0
SPLINE
5
444
100
AcDbEntity
8
0
100
AcDbSpline
70
0
71
2
72
6
73
3
74
0
42
0.000000001
43
0.0000000001
44
0.0000000001
40
0
40
0
40
0
40
1
40
1
40
1
10
206.54905797528033
20
57.8371207828623
30
0
10
205.45849682377582
20
55.560337793360347
30
0
10
203.29650641964679
20
55.560337793360347
30
0
0
SPLINE
5
445
100
AcDbEntity
8
0
100
AcDbSpline
70
0
71
2
72
6
73
3
74
0
42
0.000000001
43
0.0000000001
44
0.0000000001
40
0
40
0
40
0
40
1
40
1
40
1
10
203.29650641964679
20
55.560337793360347
30
0
10
201.19191528843646
20
55.560337793360347
30
0
10
199.91002799557452
20
57.186609994898426
30
0
0
SPLINE
5
446
100
AcDbEntity
8
0
100
AcDbSpline
70
0
71
2
72
6
73
3
74
0
42
0.000000001
43
0.0000000001
44
0.0000000001
40
0
40
0
40
0
40
1
40
1
40
1
10
199.91002799557452
20
57.186609994898426
30
0
10
198.7046706824184
20
58.736359369288074
30
0
10
198.7046706824184
20
61.032273065577137
30
0
0
SPLINE
5
447
100
AcDbEntity
8
0
100
AcDbSpline
70
0
71
2
72
6
73
3
74
0
42
0.000000001
43
0.0000000001
44
0.0000000001
40
0
40
0
40
0
40
1
40
1
40
1
10
198.7046706824184
20
61.032273065577137
30
0
10
198.7046706824184
20
62.562891733179676
30
0
10
199.29778219746356
20
63.97870708657323
30
0
0
SPLINE
5
448
100
AcDbEntity
8
0
100
AcDbSpline
70
0
71
2
72
6
73
3
74
0
42
0.000000001
43
0.0000000001
44
0.0000000001
40
0
40
0
40
0
40
1
40
1
40
1
10
199.29778219746356
20
63.97870708657323
30
0
10
199.6230375914455
20
64.801413309107417
30
0
10
200.36921145008807
20
65.930239450464839
30
0
0
LINE
5
449
100
AcDbEntity
8
0
100
AcDbLine
10
200.36921145008807
20
65.930239450464839
30
0
11
202.32074142979388
21
65.930239450464839
31
0
0
SPLINE
5
450
100
AcDbEntity
8
0
100
AcDbSpline
70
0
71
2
72
6
73
3
74
0
42
0.000000001
43
0.0000000001
44
0.0000000001
40
0
40
0
40
0
40
1
40
1
40
1
10
202.32074142979388
20
65.930239450464839
30
0
10
201.00058914707904
20
64.457022439966792
30
0
10
200.46487452076678
20
62.945544015894527
30
0
0
SPLINE
5
451
100
AcDbEntity
8
0
100
AcDbSpline
70
0
71
2
72
6
73
3
74
0
42
0.000000001
43
0.0000000001
44
0.0000000001
40
0
40
0
40
0
40
1
40
1
40
1
10
200.46487452076678
20
62.945544015894527
30
0
10
200.27354718731647
20
62.448097955713862
30
0
10
200.19701720761066
20
61.969773065577137
30
0
0
SPLINE
5
452
100
AcDbEntity
8
0
100
AcDbSpline
70
0
71
2
72
6
73
3
74
0
42
0.000000001
43
0.0000000001
44
0.0000000001
40
0
40
0
40
0
40
1
40
1
40
1
10
200.19701720761066
20
61.969773065577137
30
0
10
200.12048722790485
20
61.491457712183582
30
0
10
200.12048722790485
20
61.013142358790027
30
0
0
SPLINE
5
453
100
AcDbEntity
8
0
100
AcDbSpline
70
0
71
2
72
6
73
3
74
0
42
0.000000001
43
0.0000000001
44
0.0000000001
40
0
40
0
40
0
40
1
40
1
40
1
10
200.12048722790485
20
61.013142358790027
30
0
10
200.12048722790485
20
59.482533227930652
30
0
10
200.88579298542743
20
58.430239450464839
30
0
0
SPLINE
5
454
100
AcDbEntity
8
0
100
AcDbSpline
70
0
71
2
72
6
73
3
74
0
42
0.000000001
43
0.0000000001
44
0.0000000001
40
0
40
0
40
0
40
1
40
1
40
1
10
200.88579298542743
20
58.430239450464839
30
0
10
201.72762991474872
20
57.263142358790034
30
0
10
203.08604718731647
20
57.263142358790034
30
0
0
SPLINE
5
455
100
AcDbEntity
8
0
100
AcDbSpline
70
0
71
2
72
6
73
3
74
0
42
0.000000001
43
0.0000000001
44
0.0000000001
40
0
40
0
40
0
40
1
40
1
40
1
10
203.08604718731647
20
57.263142358790034
30
0
10
204.73145605610614
20
57.263142358790034
30
0
10
205.59242488430743
20
59.482533227930659
30
0
0
SPLINE
5
456
100
AcDbEntity
8
0
100
AcDbSpline
70
0
71
2
72
6
73
3
74
0
42
0.000000001
43
0.0000000001
44
0.0000000001
40
0
40
0
40
0
40
1
40
1
40
1
10
205.59242488430743
20
59.482533227930659
30
0
10
205.91768027828937
20
60.553957712183589
30
0
10
206.26206816719775
20
61.5871207828623
30
0
0
SPLINE
5
457
100
AcDbEntity
8
0
100
AcDbSpline
70
0
71
2
72
6
73
3
74
0
42
0.000000001
43
0.0000000001
44
0.0000000001
40
0
40
0
40
0
40
1
40
1
40
1
10
206.26206816719775
20
61.5871207828623
30
0
10
206.60645605610614
20
62.620283853541011
30
0
10
206.93171085404163
20
63.653446924219722
30
0
0
SPLINE
5
458
100
AcDbEntity
8
0
100
AcDbSpline
70
0
71
2
72
6
73
3
74
0
42
0.000000001
43
0.0000000001
44
0.0000000001
40
0
40
0
40
0
40
1
40
1
40
1
10
206.93171085404163
20
63.653446924219722
30
0
10
207.96487392472034
20
65.891968500147456
30
0
10
210.10773064183002
20
65.891968500147456
30
0
0
SPLINE
5
459
100
AcDbEntity
8
0
100
AcDbSpline
70
0
71
2
72
6
73
3
74
0
42
0.000000001
43
0.0000000001
44
0.0000000001
40
0
40
0
40
0
40
1
40
1
40
1
10
210.10773064183002
20
65.891968500147456
30
0
10
211.90620066212421
20
65.89196850014747
30
0
10
213.03502680348163
20
64.476153146753916
30
0
0
SPLINE
5
460
100
AcDbEntity
8
0
100
AcDbSpline
70
0
71
2
72
6
73
3
74
0
42
0.000000001
43
0.0000000001
44
0.0000000001
40
0
40
0
40
0
40
1
40
1
40
1
10
213.03502680348163
20
64.476153146753916
30
0
10
214.20211912678485
20
63.022076379786142
30
0
10
214.20211912678485
20
60.840946924219736
30
0
0
SPLINE
5
461
100
AcDbEntity
8
0
100
AcDbSpline
70
0
71
2
72
6
73
3
74
0
42
0.000000001
43
0.0000000001
44
0.0000000001
40
0
40
0
40
0
40
1
40
1
40
1
10
214.20211912678485
20
60.840946924219736
30
0
10
214.20211912678485
20
59.501663934717783
30
0
10
213.7046694903255
20
58.16238094521583
30
0
0
SPLINE
5
462
100
AcDbEntity
8
0
100
AcDbSpline
70
0
71
2
72
6
73
3
74
0
42
0.000000001
43
0.0000000001
44
0.0000000001
40
0
40
0
40
0
40
1
40
1
40
1
10
213.7046694903255
20
58.16238094521583
30
0
10
213.47507835911517
20
57.473608743677744
30
0
10
212.90109874295001
20
56.497837793360361
30
0
0
LINE
5
463
100
AcDbEntity
8
0
100
AcDbLine
10
190.68808795498612
20
90.429591428766827
30
0
11
190.68808795498612
21
88.956376802454571
31
0
0
LINE
5
464
100
AcDbEntity
8
0
100
AcDbLine
10
190.68808795498612
20
88.956376802454571
30
0
11
175.68808795498612
21
83.369642984400357
31
0
0
LINE
5
465
100
AcDbEntity
8
0
100
AcDbLine
10
175.68808795498612
20
83.369642984400357
30
0
11
175.68808795498612
21
85.129846822748746
31
0
0
LINE
5
466
100
AcDbEntity
8
0
100
AcDbLine
10
175.68808795498612
20
85.129846822748746
30
0
11
180.81563951061966
21
86.928316843042936
31
0
0
LINE
5
467
100
AcDbEntity
8
0
100
AcDbLine
10
180.81563951061966
20
86.92831684304295
30
0
11
180.81563951061966
21
92.62984682274876
31
0
0
LINE
5
468
100
AcDbEntity
8
0
100
AcDbLine
10
180.81563951061966
20
92.62984682274876
30
0
11
175.68808795498612
21
94.50484682274876
31
0
0
LINE
5
469
100
AcDbEntity
8
0
100
AcDbLine
10
175.68808795498612
20
94.504846822748746
30
0
11
175.68808795498612
21
96.169387590418424
31
0
0
LINE
5
470
100
AcDbEntity
8
0
100
AcDbLine
10
175.68808795498612
20
96.169387590418424
30
0
11
190.68808795498612
21
90.429591428766827
31
0
0
LINE
5
471
100
AcDbEntity
8
0
100
AcDbLine
10
182.1357917933345
20
87.349235307703594
30
0
11
188.88961793469193
21
89.664284479151348
31
0
0
LINE
5
472
100
AcDbEntity
8
0
100
AcDbLine
10
188.88961793469193
20
89.664284479151348
30
0
11
182.1357917933345
21
92.170662176142315
31
0
0
LINE
5
473
100
AcDbEntity
8
0
100
AcDbLine
10
182.1357917933345
20
92.170662176142315
30
0
11
182.1357917933345
21
87.349235307703594
31
0
0
LINE
5
474
100
AcDbEntity
8
0
100
AcDbLine
10
167.4227833895564
20
117.16747153950747
30
0
11
167.4227833895564
21
112.02078868104037
31
0
0
SPLINE
5
475
100
AcDbEntity
8
0
100
AcDbSpline
70
0
71
2
72
6
73
3
74
0
42
0.000000001
43
0.0000000001
44
0.0000000001
40
0
40
0
40
0
40
1
40
1
40
1
10
167.4227833895564
20
112.02078868104037
30
0
10
167.4227833895564
20
110.08839060021457
30
0
10
166.63834334896805
20
108.95956445885714
30
0
0
SPLINE
5
476
100
AcDbEntity
8
0
100
AcDbSpline
70
0
71
2
72
6
73
3
74
0
42
0.000000001
43
0.0000000001
44
0.0000000001
40
0
40
0
40
0
40
1
40
1
40
1
10
166.63834334896805
20
108.95956445885714
30
0
10
165.70084334896805
20
107.63941098404941
30
0
10
163.95977260159256
20
107.63941098404941
30
0
0
SPLINE
5
477
100
AcDbEntity
8
0
100
AcDbSpline
70
0
71
2
72
6
73
3
74
0
42
0.000000001
43
0.0000000001
44
0.0000000001
40
0
40
0
40
0
40
1
40
1
40
1
10
163.95977260159256
20
107.63941098404941
30
0
10
162.50569106625321
20
107.63941098404941
30
0
10
161.5107941775203
20
108.57691098404939
30
0
0
SPLINE
5
478
100
AcDbEntity
8
0
100
AcDbSpline
70
0
71
2
72
6
73
3
74
0
42
0.000000001
43
0.0000000001
44
0.0000000001
40
0
40
0
40
0
40
1
40
1
40
1
10
161.5107941775203
20
108.57691098404939
30
0
10
161.20466949032547
20
108.84476829720552
30
0
10
160.95594646023511
20
109.24655367089326
30
0
0
SPLINE
5
479
100
AcDbEntity
8
0
100
AcDbSpline
70
0
71
2
72
6
73
3
74
0
42
0.000000001
43
0.0000000001
44
0.0000000001
40
0
40
0
40
0
40
1
40
1
40
1
10
160.95594646023511
20
109.24655367089326
30
0
10
160.70722343014478
20
109.629207145701
30
0
10
160.47763110684156
20
110.12665618611391
30
0
0
SPLINE
5
480
100
AcDbEntity
8
0
100
AcDbSpline
70
0
71
2
72
6
73
3
74
0
42
0.000000001
43
0.0000000001
44
0.0000000001
40
0
40
0
40
0
40
1
40
1
40
1
10
160.47763110684156
20
110.12665618611391
30
0
10
160.15237571285965
20
108.15599371148164
30
0
10
158.92788650082349
20
107.27589060021455
30
0
0
SPLINE
5
481
100
AcDbEntity
8
0
100
AcDbSpline
70
0
71
2
72
6
73
3
74
0
42
0.000000001
43
0.0000000001
44
0.0000000001
40
0
40
0
40
0
40
1
40
1
40
1
10
158.92788650082349
20
107.27589060021455
30
0
10
157.99038650082349
20
106.60624791337068
30
0
10
156.82329417752027
20
106.60624791337068
30
0
0
SPLINE
5
482
100
AcDbEntity
8
0
100
AcDbSpline
70
0
71
2
72
6
73
3
74
0
42
0.000000001
43
0.0000000001
44
0.0000000001
40
0
40
0
40
0
40
1
40
1
40
1
10
156.82329417752027
20
106.60624791337068
30
0
10
154.92915870236158
20
106.60624791337068
30
0
10
153.66640807675122
20
108.04119754983003
30
0
0
SPLINE
5
483
100
AcDbEntity
8
0
100
AcDbSpline
70
0
71
2
72
6
73
3
74
0
42
0.000000001
43
0.0000000001
44
0.0000000001
40
0
40
0
40
0
40
1
40
1
40
1
10
153.66640807675122
20
108.04119754983003
30
0
10
152.4227833895564
20
109.41874791337068
30
0
10
152.4227833895564
20
111.38941098404939
30
0
0
LINE
5
484
100
AcDbEntity
8
0
100
AcDbLine
10
152.4227833895564
20
111.38941098404939
30
0
11
152.4227833895564
21
117.16747153950746
31
0
0
LINE
5
485
100
AcDbEntity
8
0
100
AcDbLine
10
152.4227833895564
20
117.16747153950746
30
0
11
167.4227833895564
21
117.16747153950747
31
0
0
LINE
5
486
100
AcDbEntity
8
0
100
AcDbLine
10
166.10263110684156
20
112.11645175171908
30
0
11
166.10263110684156
21
115.65599222136554
31
0
0
LINE
5
487
100
AcDbEntity
8
0
100
AcDbLine
10
166.10263110684156
20
115.65599222136554
30
0
11
160.95594646023511
21
115.65599222136554
31
0
0
LINE
5
488
100
AcDbEntity
8
0
100
AcDbLine
10
160.95594646023511
20
115.65599222136552
30
0
11
160.95594646023511
21
112.80522752953584
31
0
0
SPLINE
5
489
100
AcDbEntity
8
0
100
AcDbSpline
70
0
71
2
72
6
73
3
74
0
42
0.000000001
43
0.0000000001
44
0.0000000001
40
0
40
0
40
0
40
1
40
1
40
1
10
160.95594646023511
20
112.80522752953584
30
0
10
160.95594646023511
20
111.08328868104036
30
0
10
161.7212510256648
20
110.16492117596681
30
0
0
SPLINE
5
490
100
AcDbEntity
8
0
100
AcDbSpline
70
0
71
2
72
6
73
3
74
0
42
0.000000001
43
0.0000000001
44
0.0000000001
40
0
40
0
40
0
40
1
40
1
40
1
10
161.7212510256648
20
110.16492117596681
30
0
10
162.50569106625318
20
109.24655367089328
30
0
10
163.73018027828931
20
109.24655367089328
30
0
0
SPLINE
5
491
100
AcDbEntity
8
0
100
AcDbSpline
70
0
71
2
72
6
73
3
74
0
42
0.000000001
43
0.0000000001
44
0.0000000001
40
0
40
0
40
0
40
1
40
1
40
1
10
163.73018027828931
20
109.24655367089328
30
0
10
164.686815753448
20
109.24655367089328
30
0
10
165.37558795498609
20
109.89706445885714
30
0
0
SPLINE
5
492
100
AcDbEntity
8
0
100
AcDbSpline
70
0
71
2
72
6
73
3
74
0
42
0.000000001
43
0.0000000001
44
0.0000000001
40
0
40
0
40
0
40
1
40
1
40
1
10
165.37558795498609
20
109.89706445885714
30
0
10
166.10263110684156
20
110.68150271130618
30
0
10
166.10263110684156
20
112.11645175171908
30
0
0
LINE
5
493
100
AcDbEntity
8
0
100
AcDbLine
10
159.63579417752027
20
112.3843090648752
30
0
11
159.63579417752027
21
115.65599222136552
31
0
0
LINE
5
494
100
AcDbEntity
8
0
100
AcDbLine
10
159.63579417752027
20
115.65599222136552
30
0
11
153.74293567227124
21
115.65599222136552
31
0
0
LINE
5
495
100
AcDbEntity
8
0
100
AcDbLine
10
153.74293567227124
20
115.65599222136552
30
0
11
153.74293567227124
21
112.02078868104036
31
0
0
SPLINE
5
496
100
AcDbEntity
8
0
100
AcDbSpline
70
0
71
2
72
6
73
3
74
0
42
0.000000001
43
0.0000000001
44
0.0000000001
40
0
40
0
40
0
40
1
40
1
40
1
10
153.74293567227124
20
112.02078868104036
30
0
10
153.74293567227124
20
110.37538040829713
30
0
10
154.56564189480542
20
109.32308484269197
30
0
0
SPLINE
5
497
100
AcDbEntity
8
0
100
AcDbSpline
70
0
71
2
72
6
73
3
74
0
42
0.000000001
43
0.0000000001
44
0.0000000001
40
0
40
0
40
0
40
1
40
1
40
1
10
154.56564189480542
20
109.32308484269197
30
0
10
155.44574023770093
20
108.27078868104036
30
0
10
156.80415870236158
20
108.27078868104036
30
0
0
SPLINE
5
498
100
AcDbEntity
8
0
100
AcDbSpline
70
0
71
2
72
6
73
3
74
0
42
0.000000001
43
0.0000000001
44
0.0000000001
40
0
40
0
40
0
40
1
40
1
40
1
10
156.80415870236158
20
108.27078868104036
30
0
10
158.18171264218091
20
108.27078868104036
30
0
10
158.9087510256648
20
109.34221674157197
30
0
0
SPLINE
5
499
100
AcDbEntity
8
0
100
AcDbSpline
70
0
71
2
72
6
73
3
74
0
42
0.000000001
43
0.0000000001
44
0.0000000001
40
0
40
0
40
0
40
1
40
1
40
1
10
158.9087510256648
20
109.34221674157197
30
0
10
159.63579417752027
20
110.39451290322359
30
0
10
159.63579417752027
20
112.3843090648752
30
0
0
SPLINE
5
500
100
AcDbEntity
8
0
100
AcDbSpline
70
0
71
2
72
6
73
3
74
0
42
0.000000001
43
0.0000000001
44
0.0000000001
40
0
40
0
40
0
40
1
40
1
40
1
10
152.1740603594661
20
97.782270204554152
30
0
10
152.1740603594661
20
100.38431097222383
30
0
10
154.20212031887769
20
102.33584095192964
30
0
0
SPLINE
5
501
100
AcDbEntity
8
0
100
AcDbSpline
70
0
71
2
72
6
73
3
74
0
42
0.000000001
43
0.0000000001
44
0.0000000001
40
0
40
0
40
0
40
1
40
1
40
1
10
154.20212031887769
20
102.33584095192964
30
0
10
156.40237571285962
20
104.47869826508577
30
0
10
159.8845172076106
20
104.47869826508577
30
0
0
SPLINE
5
502
100
AcDbEntity
8
0
100
AcDbSpline
70
0
71
2
72
6
73
3
74
0
42
0.000000001
43
0.0000000001
44
0.0000000001
40
0
40
0
40
0
40
1
40
1
40
1
10
159.8845172076106
20
104.47869826508577
30
0
10
163.21359874294998
20
104.47869826508578
30
0
10
165.50951720761063
20
102.46977020455417
30
0
0
SPLINE
5
503
100
AcDbEntity
8
0
100
AcDbSpline
70
0
71
2
72
6
73
3
74
0
42
0.000000001
43
0.0000000001
44
0.0000000001
40
0
40
0
40
0
40
1
40
1
40
1
10
165.50951720761063
20
102.46977020455417
30
0
10
167.67150641964676
20
100.51823903275546
30
0
10
167.67150641964676
20
97.839667093287076
30
0
0
SPLINE
5
504
100
AcDbEntity
8
0
100
AcDbSpline
70
0
71
2
72
6
73
3
74
0
42
0.000000001
43
0.0000000001
44
0.0000000001
40
0
40
0
40
0
40
1
40
1
40
1
10
167.67150641964676
20
97.839667093287076
30
0
10
167.67150641964676
20
95.122830163965787
30
0
10
165.54778338955643
20
93.171300184259977
30
0
0
SPLINE
5
505
100
AcDbEntity
8
0
100
AcDbSpline
70
0
71
2
72
6
73
3
74
0
42
0.000000001
43
0.0000000001
44
0.0000000001
40
0
40
0
40
0
40
1
40
1
40
1
10
165.54778338955643
20
93.171300184259977
30
0
10
163.30926181362869
20
91.162373315821256
30
0
10
159.90365268276932
20
91.162373315821242
30
0
0
SPLINE
5
506
100
AcDbEntity
8
0
100
AcDbSpline
70
0
71
2
72
6
73
3
74
0
42
0.000000001
43
0.0000000001
44
0.0000000001
40
0
40
0
40
0
40
1
40
1
40
1
10
159.90365268276932
20
91.162373315821242
30
0
10
156.36410953091385
20
91.162373315821242
30
0
10
154.16385413693192
20
93.343493234644484
30
0
0
SPLINE
5
507
100
AcDbEntity
8
0
100
AcDbSpline
70
0
71
2
72
6
73
3
74
0
42
0.000000001
43
0.0000000001
44
0.0000000001
40
0
40
0
40
0
40
1
40
1
40
1
10
154.16385413693192
20
93.343493234644484
30
0
10
152.1740603594661
20
95.275892507563185
30
0
10
152.1740603594661
20
97.782270204554152
30
0
0
SPLINE
5
508
100
AcDbEntity
8
0
100
AcDbSpline
70
0
71
2
72
6
73
3
74
0
42
0.000000001
43
0.0000000001
44
0.0000000001
40
0
40
0
40
0
40
1
40
1
40
1
10
153.58987571285965
20
97.897066366205763
30
0
10
153.58987571285965
20
95.77334095192964
30
0
10
155.36921264218094
20
94.280993234644484
30
0
0
SPLINE
5
509
100
AcDbEntity
8
0
100
AcDbSpline
70
0
71
2
72
6
73
3
74
0
42
0.000000001
43
0.0000000001
44
0.0000000001
40
0
40
0
40
0
40
1
40
1
40
1
10
155.36921264218094
20
94.280993234644484
30
0
10
157.18681575344803
20
92.769514810572218
30
0
10
159.90365268276932
20
92.769514810572218
30
0
0
SPLINE
5
510
100
AcDbEntity
8
0
100
AcDbSpline
70
0
71
2
72
6
73
3
74
0
42
0.000000001
43
0.0000000001
44
0.0000000001
40
0
40
0
40
0
40
1
40
1
40
1
10
159.90365268276932
20
92.769514810572218
30
0
10
161.22380496548416
20
92.769514810572232
30
0
10
162.35263110684159
20
93.133036386499967
30
0
0
SPLINE
5
511
100
AcDbEntity
8
0
100
AcDbSpline
70
0
71
2
72
6
73
3
74
0
42
0.000000001
43
0.0000000001
44
0.0000000001
40
0
40
0
40
0
40
1
40
1
40
1
10
162.35263110684159
20
93.133036386499967
30
0
10
163.48145724819901
20
93.49655557824191
30
0
10
164.3998265414119
20
94.223596345911588
30
0
0
SPLINE
5
512
100
AcDbEntity
8
0
100
AcDbSpline
70
0
71
2
72
6
73
3
74
0
42
0.000000001
43
0.0000000001
44
0.0000000001
40
0
40
0
40
0
40
1
40
1
40
1
10
164.3998265414119
20
94.223596345911588
30
0
10
166.25569106625321
20
95.677677881250943
30
0
10
166.25569106625321
20
97.820536386499967
30
0
0
SPLINE
5
513
100
AcDbEntity
8
0
100
AcDbSpline
70
0
71
2
72
6
73
3
74
0
42
0.000000001
43
0.0000000001
44
0.0000000001
40
0
40
0
40
0
40
1
40
1
40
1
10
166.25569106625321
20
97.820536386499967
30
0
10
166.25569106625321
20
99.944259416590299
30
0
10
164.3998265414119
20
101.41747404290255
30
0
0
SPLINE
5
514
100
AcDbEntity
8
0
100
AcDbSpline
70
0
71
2
72
6
73
3
74
0
42
0.000000001
43
0.0000000001
44
0.0000000001
40
0
40
0
40
0
40
1
40
1
40
1
10
164.3998265414119
20
101.41747404290255
30
0
10
162.58222343014481
20
102.87155557824191
30
0
10
159.86538650082349
20
102.8715555782419
30
0
0
SPLINE
5
515
100
AcDbEntity
8
0
100
AcDbSpline
70
0
71
2
72
6
73
3
74
0
42
0.000000001
43
0.0000000001
44
0.0000000001
40
0
40
0
40
0
40
1
40
1
40
1
10
159.86538650082349
20
102.8715555782419
30
0
10
157.0337510256648
20
102.8715555782419
30
0
10
155.25441409634354
20
101.34094287110383
30
0
0
SPLINE
5
516
100
AcDbEntity
8
0
100
AcDbSpline
70
0
71
2
72
6
73
3
74
0
42
0.000000001
43
0.0000000001
44
0.0000000001
40
0
40
0
40
0
40
1
40
1
40
1
10
155.25441409634354
20
101.34094287110383
30
0
10
153.58987571285965
20
99.905993234644484
30
0
10
153.58987571285965
20
97.897066366205763
30
0
0
LINE
5
517
100
AcDbEntity
8
0
100
AcDbLine
10
167.42278338955643
20
88.977424394617643
30
0
11
167.42278338955643
21
87.159821283350553
31
0
0
LINE
5
518
100
AcDbEntity
8
0
100
AcDbLine
10
167.42278338955643
20
87.159821283350553
30
0
11
161.52992488430741
21
83.161098253260221
31
0
0
LINE
5
519
100
AcDbEntity
8
0
100
AcDbLine
10
161.52992488430741
20
83.161098253260221
30
0
11
167.42278338955643
21
79.162375223169889
31
0
0
LINE
5
520
100
AcDbEntity
8
0
100
AcDbLine
10
167.42278338955643
20
79.162375223169889
30
0
11
167.42278338955643
21
77.268244516382779
31
0
0
LINE
5
521
100
AcDbEntity
8
0
100
AcDbLine
10
167.42278338955643
20
77.268244516382779
30
0
11
160.45849563168289
21
82.242731344233121
31
0
0
LINE
5
522
100
AcDbEntity
8
0
100
AcDbLine
10
160.45849563168289
20
82.242731344233107
30
0
11
152.42278338955643
21
76.483804475794372
31
0
0
LINE
5
523
100
AcDbEntity
8
0
100
AcDbLine
10
152.42278338955646
20
76.483804475794386
30
0
11
152.42278338955646
21
78.454467546473097
31
0
0
LINE
5
524
100
AcDbEntity
8
0
100
AcDbLine
10
152.42278338955646
20
78.454467546473097
30
0
11
159.3679356722713
21
83.161098253260221
31
0
0
LINE
5
525
100
AcDbEntity
8
0
100
AcDbLine
10
159.36793567227127
20
83.161098253260207
30
0
11
152.42278338955643
21
87.867731344233107
31
0
0
LINE
5
526
100
AcDbEntity
8
0
100
AcDbLine
10
152.42278338955643
20
87.867731344233107
30
0
11
152.42278338955643
21
89.761862051020216
31
0
0
LINE
5
527
100
AcDbEntity
8
0
100
AcDbLine
10
152.42278338955643
20
89.761862051020216
30
0
11
160.45849563168289
21
84.041201364527296
31
0
0
LINE
5
528
100
AcDbEntity
8
0
100
AcDbLine
10
160.45849563168289
20
84.041201364527296
30
0
11
167.42278338955643
21
88.977424394617628
31
0
0
LINE
5
529
100
AcDbEntity
8
0
100
AcDbLine
10
167.42278338955646
20
66.374108087549772
30
0
11
167.42278338955646
21
64.747831117640104
31
0
0
LINE
5
530
100
AcDbEntity
8
0
100
AcDbLine
10
167.42278338955646
20
64.747831117640104
30
0
11
156.21104957150226
21
64.939162027369093
31
0
0
LINE
5
531
100
AcDbEntity
8
0
100
AcDbLine
10
156.21104957150226
20
64.939162027369093
30
0
11
156.21104957150226
21
66.201912652979445
31
0
0
LINE
5
532
100
AcDbEntity
8
0
100
AcDbLine
10
156.21104957150226
20
66.201912652979445
30
0
11
167.42278338955646
21
66.374108087549772
31
0
0
SPLINE
5
533
100
AcDbEntity
8
0
100
AcDbSpline
70
0
71
2
72
6
73
3
74
0
42
0.000000001
43
0.0000000001
44
0.0000000001
40
0
40
0
40
0
40
1
40
1
40
1
10
152.36538650082355
20
65.60880352212007
30
0
10
152.36538650082355
20
66.067988168726515
30
0
10
152.74803878353839
20
66.316711198816847
30
0
0
SPLINE
5
534
100
AcDbEntity
8
0
100
AcDbSpline
70
0
71
2
72
6
73
3
74
0
42
0.000000001
43
0.0000000001
44
0.0000000001
40
0
40
0
40
0
40
1
40
1
40
1
10
152.74803878353839
20
66.316711198816847
30
0
10
153.14982654141193
20
66.54630352212007
30
0
10
153.64727260159259
20
66.54630352212007
30
0
0
SPLINE
5
535
100
AcDbEntity
8
0
100
AcDbSpline
70
0
71
2
72
6
73
3
74
0
42
0.000000001
43
0.0000000001
44
0.0000000001
40
0
40
0
40
0
40
1
40
1
40
1
10
153.64727260159259
20
66.54630352212007
30
0
10
154.22125102566486
20
66.54630352212007
30
0
10
154.6421694903255
20
66.297575723658156
30
0
0
SPLINE
5
536
100
AcDbEntity
8
0
100
AcDbSpline
70
0
71
2
72
6
73
3
74
0
42
0.000000001
43
0.0000000001
44
0.0000000001
40
0
40
0
40
0
40
1
40
1
40
1
10
154.6421694903255
20
66.297575723658156
30
0
10
155.06308795498614
20
66.048852693567824
30
0
10
155.06308795498614
20
65.551401865015578
30
0
0
SPLINE
5
537
100
AcDbEntity
8
0
100
AcDbSpline
70
0
71
2
72
6
73
3
74
0
42
0.000000001
43
0.0000000001
44
0.0000000001
40
0
40
0
40
0
40
1
40
1
40
1
10
155.06308795498614
20
65.551401865015578
30
0
10
155.06308795498614
20
65.111352693567824
30
0
10
154.6421694903255
20
64.900895845423292
30
0
0
SPLINE
5
538
100
AcDbEntity
8
0
100
AcDbSpline
70
0
71
2
72
6
73
3
74
0
42
0.000000001
43
0.0000000001
44
0.0000000001
40
0
40
0
40
0
40
1
40
1
40
1
10
154.6421694903255
20
64.900895845423292
30
0
10
154.24038650082355
20
64.67130352212007
30
0
10
153.7429356722713
20
64.67130352212007
30
0
0
SPLINE
5
539
100
AcDbEntity
8
0
100
AcDbSpline
70
0
71
2
72
6
73
3
74
0
42
0.000000001
43
0.0000000001
44
0.0000000001
40
0
40
0
40
0
40
1
40
1
40
1
10
153.7429356722713
20
64.67130352212007
30
0
10
153.16895724819904
20
64.67130352212007
30
0
10
152.7671694903255
20
64.920026552210402
30
0
0
SPLINE
5
540
100
AcDbEntity
8
0
100
AcDbSpline
70
0
71
2
72
6
73
3
74
0
42
0.000000001
43
0.0000000001
44
0.0000000001
40
0
40
0
40
0
40
1
40
1
40
1
10
152.7671694903255
20
64.920026552210402
30
0
10
152.36538650082355
20
65.168749582300734
30
0
10
152.36538650082355
20
65.60880352212007
30
0
0
LINE
5
541
100
AcDbEntity
8
0
100
AcDbLine
10
-101.40573446665803
20
55.920095711496501
30
0
11
-101.40573446665803
21
57.412442832735209
31
0
0
LINE
5
542
100
AcDbEntity
8
0
100
AcDbLine
10
-101.40573446665803
20
57.412442832735209
30
0
11
-94.86236815367738
21
57.412442832735223
31
0
0
LINE
5
543
100
AcDbEntity
8
0
100
AcDbLine
10
-94.86236815367738
20
57.412442832735223
30
0
11
-94.862368153677394
21
65.658616393354578
31
0
0
LINE
5
544
100
AcDbEntity
8
0
100
AcDbLine
10
-94.862368153677394
20
65.658616393354578
30
0
11
-101.40573446665805
21
65.658616393354563
31
0
0
LINE
5
545
100
AcDbEntity
8
0
100
AcDbLine
10
-101.40573446665805
20
65.658616393354563
30
0
11
-101.40573446665805
21
67.150962918546824
31
0
0
LINE
5
546
100
AcDbEntity
8
0
100
AcDbLine
10
-101.40573446665805
20
67.150962918546824
30
0
11
-86.405735658750942
21
67.150962918546838
31
0
0
LINE
5
547
100
AcDbEntity
8
0
100
AcDbLine
10
-86.405735658750942
20
67.150962918546838
30
0
11
-86.405735658750942
21
65.658616393354578
31
0
0
LINE
5
548
100
AcDbEntity
8
0
100
AcDbLine
10
-86.405735658750942
20
65.658616393354578
30
0
11
-93.599612759695461
21
65.658616393354578
31
0
0
LINE
5
549
100
AcDbEntity
8
0
100
AcDbLine
10
-93.599612759695461
20
65.658616393354578
30
0
11
-93.599612759695447
21
57.412442832735223
31
0
0
LINE
5
550
100
AcDbEntity
8
0
100
AcDbLine
10
-93.599612759695447
20
57.412442832735223
30
0
11
-86.405735658750928
21
57.412442832735231
31
0
0
LINE
5
551
100
AcDbEntity
8
0
100
AcDbLine
10
-86.405735658750928
20
57.412442832735231
30
0
11
-86.405735658750928
21
55.920095711496522
31
0
0
LINE
5
552
100
AcDbEntity
8
0
100
AcDbLine
10
-86.405735658750928
20
55.920095711496522
30
0
11
-101.40573446665803
21
55.920095711496501
31
0
0
LINE
5
553
100
AcDbEntity
8
0
100
AcDbLine
10
-101.42486755763095
20
69.68029794051948
30
0
11
-101.42486755763096
21
79.01703175857368
31
0
0
LINE
5
554
100
AcDbEntity
8
0
100
AcDbLine
10
-101.42486755763096
20
79.01703175857368
30
0
11
-100.10471408282322
21
79.01703175857368
31
0
0
LINE
5
555
100
AcDbEntity
8
0
100
AcDbLine
10
-100.10471408282322
20
79.017031758573694
30
0
11
-100.10471408282321
21
71.191777556684656
31
0
0
LINE
5
556
100
AcDbEntity
8
0
100
AcDbLine
10
-100.10471408282321
20
71.191777556684656
30
0
11
-94.919765638456752
21
71.191777556684656
31
0
0
LINE
5
557
100
AcDbEntity
8
0
100
AcDbLine
10
-94.919765638456752
20
71.191777556684656
30
0
11
-94.919765638456767
21
78.730042546537561
31
0
0
LINE
5
558
100
AcDbEntity
8
0
100
AcDbLine
10
-94.919765638456767
20
78.730042546537561
30
0
11
-93.599612759695475
21
78.730042546537561
31
0
0
LINE
5
559
100
AcDbEntity
8
0
100
AcDbLine
10
-93.599612759695475
20
78.730042546537561
30
0
11
-93.599612759695461
21
71.191777556684656
31
0
0
LINE
5
560
100
AcDbEntity
8
0
100
AcDbLine
10
-93.599612759695461
20
71.191777556684656
30
0
11
-87.725889133558681
21
71.191777556684656
31
0
0
LINE
5
561
100
AcDbEntity
8
0
100
AcDbLine
10
-87.725889133558681
20
71.191777556684656
30
0
11
-87.725889133558695
21
79.074428647306604
31
0
0
LINE
5
562
100
AcDbEntity
8
0
100
AcDbLine
10
-87.725889133558695
20
79.074428647306604
30
0
11
-86.405735658750956
21
79.074428647306604
31
0
0
LINE
5
563
100
AcDbEntity
8
0
100
AcDbLine
10
-86.405735658750956
20
79.074428647306604
30
0
11
-86.405735658750942
21
69.680297940519495
31
0
0
LINE
5
564
100
AcDbEntity
8
0
100
AcDbLine
10
-86.405735658750942
20
69.680297940519495
30
0
11
-101.42486755763095
21
69.68029794051948
31
0
0
LINE
5
565
100
AcDbEntity
8
0
100
AcDbLine
10
-101.40573446665806
20
81.374173730161829
30
0
11
-101.40573446665809
21
86.329529851225061
31
0
0
SPLINE
5
566
100
AcDbEntity
8
0
100
AcDbSpline
70
0
71
2
72
6
73
3
74
0
42
0.000000001
43
0.0000000001
44
0.0000000001
40
0
40
0
40
0
40
1
40
1
40
1
10
-101.40573446665809
20
86.329529851225061
30
0
10
-101.40573446665809
20
88.319326012876672
30
0
10
-100.75522487078712
20
89.620347588804407
30
0
0
SPLINE
5
567
100
AcDbEntity
8
0
100
AcDbSpline
70
0
71
2
72
6
73
3
74
0
42
0.000000001
43
0.0000000001
44
0.0000000001
40
0
40
0
40
0
40
1
40
1
40
1
10
-100.75522487078712
20
89.620347588804407
30
0
10
-99.836857961760018
20
91.437948315885706
30
0
10
-97.69400064860389
20
91.437948315885706
30
0
0
SPLINE
5
568
100
AcDbEntity
8
0
100
AcDbSpline
70
0
71
2
72
6
73
3
74
0
42
0.000000001
43
0.0000000001
44
0.0000000001
40
0
40
0
40
0
40
1
40
1
40
1
10
-97.69400064860389
20
91.437948315885706
30
0
10
-96.220786022291634
20
91.437948315885706
30
0
10
-95.283286022291634
20
90.615244477537317
30
0
0
SPLINE
5
569
100
AcDbEntity
8
0
100
AcDbSpline
70
0
71
2
72
6
73
3
74
0
42
0.000000001
43
0.0000000001
44
0.0000000001
40
0
40
0
40
0
40
1
40
1
40
1
10
-95.283286022291634
20
90.615244477537317
30
0
10
-94.345786022291634
20
89.792540639188928
30
0
10
-93.790939497099373
20
87.974937527921838
30
0
0
SPLINE
5
570
100
AcDbEntity
8
0
100
AcDbSpline
70
0
71
2
72
6
73
3
74
0
42
0.000000001
43
0.0000000001
44
0.0000000001
40
0
40
0
40
0
40
1
40
1
40
1
10
-93.790939497099373
20
87.974937527921838
30
0
10
-93.657010840521309
20
88.300192921903772
30
0
10
-93.523082183943245
20
88.548918336179895
30
0
0
SPLINE
5
571
100
AcDbEntity
8
0
100
AcDbSpline
70
0
71
2
72
6
73
3
74
0
42
0.000000001
43
0.0000000001
44
0.0000000001
40
0
40
0
40
0
40
1
40
1
40
1
10
-93.523082183943245
20
88.548918336179895
30
0
10
-93.408287214384529
20
88.797643750456018
30
0
10
-93.255224870787117
20
88.950703709867639
30
0
0
SPLINE
5
572
100
AcDbEntity
8
0
100
AcDbSpline
70
0
71
2
72
6
73
3
74
0
42
0.000000001
43
0.0000000001
44
0.0000000001
40
0
40
0
40
0
40
1
40
1
40
1
10
-93.255224870787117
20
88.950703709867639
30
0
10
-92.681245254621956
20
89.620347588804407
30
0
10
-91.571551012144539
20
90.002999871519251
30
0
0
LINE
5
573
100
AcDbEntity
8
0
100
AcDbLine
10
-91.571551012144539
20
90.002999871519251
30
0
11
-86.405735658750984
21
91.91626366927926
31
0
0
LINE
5
574
100
AcDbEntity
8
0
100
AcDbLine
10
-86.405735658750984
20
91.916263669279274
30
0
11
-86.405735658750984
21
90.213459103849587
31
0
0
LINE
5
575
100
AcDbEntity
8
0
100
AcDbLine
10
-86.405735658750984
20
90.213459103849587
30
0
11
-89.543491052732918
21
89.218562215116677
31
0
0
SPLINE
5
576
100
AcDbEntity
8
0
100
AcDbSpline
70
0
71
2
72
6
73
3
74
0
42
0.000000001
43
0.0000000001
44
0.0000000001
40
0
40
0
40
0
40
1
40
1
40
1
10
-89.543491052732918
20
89.218562215116677
30
0
10
-91.896806406126473
20
88.434122174528284
30
0
10
-92.62384717379615
20
87.573152154234094
30
0
0
SPLINE
5
577
100
AcDbEntity
8
0
100
AcDbSpline
70
0
71
2
72
6
73
3
74
0
42
0.000000001
43
0.0000000001
44
0.0000000001
40
0
40
0
40
0
40
1
40
1
40
1
10
-92.62384717379615
20
87.573152154234094
30
0
10
-93.312622951612923
20
86.826980679777307
30
0
10
-93.312622951612923
20
85.105040639188928
30
0
0
LINE
5
578
100
AcDbEntity
8
0
100
AcDbLine
10
-93.312622951612923
20
85.105040639188928
30
0
11
-93.312622951612923
21
82.885652154234094
31
0
0
LINE
5
579
100
AcDbEntity
8
0
100
AcDbLine
10
-93.312622951612923
20
82.885652154234094
30
0
11
-86.405735658750984
21
82.885652154234094
31
0
0
LINE
5
580
100
AcDbEntity
8
0
100
AcDbLine
10
-86.405735658750984
20
82.885652154234108
30
0
11
-86.405735658750984
21
81.374173730161843
31
0
0
LINE
5
581
100
AcDbEntity
8
0
100
AcDbLine
10
-86.405735658750956
20
81.374173730161843
30
0
11
-101.40573446665806
21
81.374173730161829
31
0
0
LINE
5
582
100
AcDbEntity
8
0
100
AcDbLine
10
-100.08558218394325
20
86.616519063261194
30
0
11
-100.08558218394325
21
82.885652154234094
31
0
0
LINE
5
583
100
AcDbEntity
8
0
100
AcDbLine
10
-100.08558218394322
20
82.885652154234094
30
0
11
-94.49884776984257
21
82.885652154234094
31
0
0
LINE
5
584
100
AcDbEntity
8
0
100
AcDbLine
10
-94.49884776984257
20
82.885652154234094
30
0
11
-94.49884776984257
21
85.181570618894739
31
0
0
SPLINE
5
585
100
AcDbEntity
8
0
100
AcDbSpline
70
0
71
2
72
6
73
3
74
0
42
0.000000001
43
0.0000000001
44
0.0000000001
40
0
40
0
40
0
40
1
40
1
40
1
10
-94.498847769842598
20
85.181570618894739
30
0
10
-94.498847769842598
20
86.559122174528284
30
0
10
-94.747571992025826
20
87.496622174528284
30
0
0
SPLINE
5
586
100
AcDbEntity
8
0
100
AcDbSpline
70
0
71
2
72
6
73
3
74
0
42
0.000000001
43
0.0000000001
44
0.0000000001
40
0
40
0
40
0
40
1
40
1
40
1
10
-94.747571992025826
20
87.496622174528284
30
0
10
-95.015429305181954
20
88.453255265501184
30
0
10
-95.589408921347115
20
89.04636678054635
30
0
0
SPLINE
5
587
100
AcDbEntity
8
0
100
AcDbSpline
70
0
71
2
72
6
73
3
74
0
42
0.000000001
43
0.0000000001
44
0.0000000001
40
0
40
0
40
0
40
1
40
1
40
1
10
-95.589408921347115
20
89.04636678054635
30
0
10
-95.952929305181954
20
89.448152154234094
30
0
10
-96.488643335447762
20
89.696877568510217
30
0
0
SPLINE
5
588
100
AcDbEntity
8
0
100
AcDbSpline
70
0
71
2
72
6
73
3
74
0
42
0.000000001
43
0.0000000001
44
0.0000000001
40
0
40
0
40
0
40
1
40
1
40
1
10
-96.488643335447762
20
89.696877568510217
30
0
10
-97.024357961760018
20
89.96473368957345
30
0
10
-97.579204486952278
20
89.96473368957345
30
0
0
SPLINE
5
589
100
AcDbEntity
8
0
100
AcDbSpline
70
0
71
2
72
6
73
3
74
0
42
0.000000001
43
0.0000000001
44
0.0000000001
40
0
40
0
40
0
40
1
40
1
40
1
10
-97.579204486952278
20
89.96473368957345
30
0
10
-98.63150064860389
20
89.96473368957345
30
0
10
-99.320275234327767
20
89.10376366927926
30
0
0
SPLINE
5
590
100
AcDbEntity
8
0
100
AcDbSpline
70
0
71
2
72
6
73
3
74
0
42
0.000000001
43
0.0000000001
44
0.0000000001
40
0
40
0
40
0
40
1
40
1
40
1
10
-99.320275234327767
20
89.10376366927926
30
0
10
-100.08558218394325
20
88.166266053465051
30
0
10
-100.08558218394325
20
86.616519063261194
30
0
0
LINE
5
591
100
AcDbEntity
8
0
100
AcDbLine
10
-101.424867557631
20
94.043815701749963
30
0
11
-101.42486755763102
21
103.38055190398995
31
0
0
LINE
5
592
100
AcDbEntity
8
0
100
AcDbLine
10
-101.42486755763102
20
103.38055190398993
30
0
11
-100.10471408282328
21
103.38055190398993
31
0
0
LINE
5
593
100
AcDbEntity
8
0
100
AcDbLine
10
-100.10471408282328
20
103.38055190398993
30
0
11
-100.10471408282326
21
95.555294125822201
31
0
0
LINE
5
594
100
AcDbEntity
8
0
100
AcDbLine
10
-100.10471408282326
20
95.555294125822229
30
0
11
-94.919765638456809
21
95.555294125822229
31
0
0
LINE
5
595
100
AcDbEntity
8
0
100
AcDbLine
10
-94.919765638456809
20
95.555294125822229
30
0
11
-94.919765638456823
21
103.09356269195382
31
0
0
LINE
5
596
100
AcDbEntity
8
0
100
AcDbLine
10
-94.919765638456823
20
103.09356269195382
30
0
11
-93.599612759695532
21
103.09356269195382
31
0
0
LINE
5
597
100
AcDbEntity
8
0
100
AcDbLine
10
-93.599612759695532
20
103.09356269195382
30
0
11
-93.599612759695518
21
95.555294125822229
31
0
0
LINE
5
598
100
AcDbEntity
8
0
100
AcDbLine
10
-93.599612759695518
20
95.555294125822229
30
0
11
-87.725889133558738
21
95.555294125822229
31
0
0
LINE
5
599
100
AcDbEntity
8
0
100
AcDbLine
10
-87.725889133558738
20
95.555294125822243
30
0
11
-87.725889133558752
21
103.4379440243513
31
0
0
LINE
5
600
100
AcDbEntity
8
0
100
AcDbLine
10
-87.725889133558752
20
103.4379440243513
30
0
11
-86.405735658751013
21
103.4379440243513
31
0
0
LINE
5
601
100
AcDbEntity
8
0
100
AcDbLine
10
-86.405735658751013
20
103.4379440243513
30
0
11
-86.405735658750999
21
94.043815701749978
31
0
0
LINE
5
602
100
AcDbEntity
8
0
100
AcDbLine
10
-86.405735658750999
20
94.043815701749978
30
0
11
-101.424867557631
21
94.043815701749963
31
0
0
LINE
5
603
100
AcDbEntity
8
0
100
AcDbLine
10
-101.31007139597941
20
109.04763755157293
30
0
11
-101.31007139597941
21
110.76958236053289
31
0
0
LINE
5
604
100
AcDbEntity
8
0
100
AcDbLine
10
-101.31007139597941
20
110.76958236053289
30
0
11
-96.46951024447489
21
108.01447448089422
31
0
0
LINE
5
605
100
AcDbEntity
8
0
100
AcDbLine
10
-96.46951024447489
20
108.01447448089425
30
0
11
-96.46951024447489
21
107.21090850189034
31
0
0
LINE
5
606
100
AcDbEntity
8
0
100
AcDbLine
10
-96.46951024447489
20
107.21090850189034
30
0
11
-101.31007139597941
21
109.04763755157296
31
0
0
LINE
5
607
100
AcDbEntity
8
0
100
AcDbLine
10
-100.35343949709943
20
123.19049414947332
30
0
11
-98.421041416273624
21
123.19049414947332
31
0
0
SPLINE
5
608
100
AcDbEntity
8
0
100
AcDbSpline
70
0
71
2
72
6
73
3
74
0
42
0.000000001
43
0.0000000001
44
0.0000000001
40
0
40
0
40
0
40
1
40
1
40
1
10
-98.421041416273624
20
123.19049414947335
30
0
10
-98.841959880934269
20
122.69304808929269
30
0
10
-99.167215274916202
20
122.17646178558175
30
0
0
SPLINE
5
609
100
AcDbEntity
8
0
100
AcDbSpline
70
0
71
2
72
6
73
3
74
0
42
0.000000001
43
0.0000000001
44
0.0000000001
40
0
40
0
40
0
40
1
40
1
40
1
10
-99.167215274916202
20
122.17646178558175
30
0
10
-99.492469476805226
20
121.67901572540109
30
0
10
-99.702928709135549
20
121.18156012847723
30
0
0
SPLINE
5
610
100
AcDbEntity
8
0
100
AcDbSpline
70
0
71
2
72
6
73
3
74
0
42
0.000000001
43
0.0000000001
44
0.0000000001
40
0
40
0
40
0
40
1
40
1
40
1
10
-99.702928709135549
20
121.18156012847723
30
0
10
-100.2386433354478
20
120.0336032803327
30
0
10
-100.2386433354478
20
118.84738501861395
30
0
0
SPLINE
5
611
100
AcDbEntity
8
0
100
AcDbSpline
70
0
71
2
72
6
73
3
74
0
42
0.000000001
43
0.0000000001
44
0.0000000001
40
0
40
0
40
0
40
1
40
1
40
1
10
-100.2386433354478
20
118.84738501861395
30
0
10
-100.2386433354478
20
117.35503730132879
30
0
10
-99.492469476805226
20
116.37926635101144
30
0
0
SPLINE
5
612
100
AcDbEntity
8
0
100
AcDbSpline
70
0
71
2
72
6
73
3
74
0
42
0.000000001
43
0.0000000001
44
0.0000000001
40
0
40
0
40
0
40
1
40
1
40
1
10
-99.492469476805226
20
116.37926635101144
30
0
10
-98.727163719282643
20
115.38437423065011
30
0
10
-97.674867557631032
20
115.38437423065011
30
0
0
SPLINE
5
613
100
AcDbEntity
8
0
100
AcDbSpline
70
0
71
2
72
6
73
3
74
0
42
0.000000001
43
0.0000000001
44
0.0000000001
40
0
40
0
40
0
40
1
40
1
40
1
10
-97.674867557631032
20
115.38437423065011
30
0
10
-96.144255446539418
20
115.38437423065011
30
0
10
-95.378949689016835
20
117.64202651336495
30
0
0
SPLINE
5
614
100
AcDbEntity
8
0
100
AcDbSpline
70
0
71
2
72
6
73
3
74
0
42
0.000000001
43
0.0000000001
44
0.0000000001
40
0
40
0
40
0
40
1
40
1
40
1
10
-95.378949689016835
20
117.64202651336495
30
0
10
-95.015429305181996
20
118.69432029083077
30
0
10
-94.67104141627361
20
119.72748336150948
30
0
0
SPLINE
5
615
100
AcDbEntity
8
0
100
AcDbSpline
70
0
71
2
72
6
73
3
74
0
42
0.000000001
43
0.0000000001
44
0.0000000001
40
0
40
0
40
0
40
1
40
1
40
1
10
-94.67104141627361
20
119.72748336150948
30
0
10
-94.345786618338124
20
120.77977713897531
30
0
10
-94.001398729429752
20
121.8512111599714
30
0
0
SPLINE
5
616
100
AcDbEntity
8
0
100
AcDbSpline
70
0
71
2
72
6
73
3
74
0
42
0.000000001
43
0.0000000001
44
0.0000000001
40
0
40
0
40
0
40
1
40
1
40
1
10
-94.001398729429752
20
121.8512111599714
30
0
10
-92.910837577925236
20
124.12799414947335
30
0
10
-90.748847173796207
20
124.12799414947337
30
0
0
SPLINE
5
617
100
AcDbEntity
8
0
100
AcDbSpline
70
0
71
2
72
6
73
3
74
0
42
0.000000001
43
0.0000000001
44
0.0000000001
40
0
40
0
40
0
40
1
40
1
40
1
10
-90.748847173796207
20
124.12799414947337
30
0
10
-88.64425604258588
20
124.12799414947337
30
0
10
-87.362368749723942
20
122.50172194793528
30
0
0
SPLINE
5
618
100
AcDbEntity
8
0
100
AcDbSpline
70
0
71
2
72
6
73
3
74
0
42
0.000000001
43
0.0000000001
44
0.0000000001
40
0
40
0
40
0
40
1
40
1
40
1
10
-87.362368749723942
20
122.50172194793528
30
0
10
-86.157011436567814
20
120.95197257354563
30
0
10
-86.157011436567799
20
118.65605887725657
30
0
0
SPLINE
5
619
100
AcDbEntity
8
0
100
AcDbSpline
70
0
71
2
72
6
73
3
74
0
42
0.000000001
43
0.0000000001
44
0.0000000001
40
0
40
0
40
0
40
1
40
1
40
1
10
-86.157011436567799
20
118.65605887725657
30
0
10
-86.157011436567799
20
117.12544020965403
30
0
10
-86.750122951612965
20
115.70962485626048
30
0
0
SPLINE
5
620
100
AcDbEntity
8
0
100
AcDbSpline
70
0
71
2
72
6
73
3
74
0
42
0.000000001
43
0.0000000001
44
0.0000000001
40
0
40
0
40
0
40
1
40
1
40
1
10
-86.750122951612965
20
115.70962485626048
30
0
10
-87.075378345594899
20
114.8869186337263
30
0
10
-87.821552204237477
20
113.75809249236887
30
0
0
LINE
5
621
100
AcDbEntity
8
0
100
AcDbLine
10
-87.821552204237477
20
113.75809249236887
30
0
11
-89.773082183943288
21
113.75809249236887
31
0
0
SPLINE
5
622
100
AcDbEntity
8
0
100
AcDbSpline
70
0
71
2
72
6
73
3
74
0
42
0.000000001
43
0.0000000001
44
0.0000000001
40
0
40
0
40
0
40
1
40
1
40
1
10
-89.773082183943288
20
113.75809249236887
30
0
10
-88.452929901228444
20
115.23130950286692
30
0
10
-87.917215274916188
20
116.74278792693919
30
0
0
SPLINE
5
623
100
AcDbEntity
8
0
100
AcDbSpline
70
0
71
2
72
6
73
3
74
0
42
0.000000001
43
0.0000000001
44
0.0000000001
40
0
40
0
40
0
40
1
40
1
40
1
10
-87.917215274916188
20
116.74278792693919
30
0
10
-87.725887941465871
20
117.24023398711985
30
0
10
-87.64935796176006
20
117.71855887725657
30
0
0
SPLINE
5
624
100
AcDbEntity
8
0
100
AcDbSpline
70
0
71
2
72
6
73
3
74
0
42
0.000000001
43
0.0000000001
44
0.0000000001
40
0
40
0
40
0
40
1
40
1
40
1
10
-87.64935796176006
20
117.71855887725657
30
0
10
-87.57282798205425
20
118.19687423065012
30
0
10
-87.57282798205425
20
118.67518958404368
30
0
0
SPLINE
5
625
100
AcDbEntity
8
0
100
AcDbSpline
70
0
71
2
72
6
73
3
74
0
42
0.000000001
43
0.0000000001
44
0.0000000001
40
0
40
0
40
0
40
1
40
1
40
1
10
-87.57282798205425
20
118.67518958404368
30
0
10
-87.57282798205425
20
120.20579871490305
30
0
10
-88.338133739576847
20
121.25809249236887
30
0
0
SPLINE
5
626
100
AcDbEntity
8
0
100
AcDbSpline
70
0
71
2
72
6
73
3
74
0
42
0.000000001
43
0.0000000001
44
0.0000000001
40
0
40
0
40
0
40
1
40
1
40
1
10
-88.338133739576847
20
121.25809249236887
30
0
10
-89.179970668898136
20
122.42518958404368
30
0
10
-90.538387941465885
20
122.42518958404368
30
0
0
SPLINE
5
627
100
AcDbEntity
8
0
100
AcDbSpline
70
0
71
2
72
6
73
3
74
0
42
0.000000001
43
0.0000000001
44
0.0000000001
40
0
40
0
40
0
40
1
40
1
40
1
10
-90.538387941465885
20
122.42518958404368
30
0
10
-92.183796810255558
20
122.42518958404366
30
0
10
-93.044765638456838
20
120.20579871490304
30
0
0
SPLINE
5
628
100
AcDbEntity
8
0
100
AcDbSpline
70
0
71
2
72
6
73
3
74
0
42
0.000000001
43
0.0000000001
44
0.0000000001
40
0
40
0
40
0
40
1
40
1
40
1
10
-93.044765638456838
20
120.20579871490304
30
0
10
-93.370021032438771
20
119.13437423065011
30
0
10
-93.714408921347157
20
118.1012111599714
30
0
0
SPLINE
5
629
100
AcDbEntity
8
0
100
AcDbSpline
70
0
71
2
72
6
73
3
74
0
42
0.000000001
43
0.0000000001
44
0.0000000001
40
0
40
0
40
0
40
1
40
1
40
1
10
-93.714408921347157
20
118.1012111599714
30
0
10
-94.058796810255544
20
117.06804808929269
30
0
10
-94.384051608191029
20
116.03488501861398
30
0
0
SPLINE
5
630
100
AcDbEntity
8
0
100
AcDbSpline
70
0
71
2
72
6
73
3
74
0
42
0.000000001
43
0.0000000001
44
0.0000000001
40
0
40
0
40
0
40
1
40
1
40
1
10
-94.384051608191029
20
116.03488501861398
30
0
10
-95.41721467886974
20
113.79636344268624
30
0
10
-97.560071395979421
20
113.79636344268624
30
0
0
SPLINE
5
631
100
AcDbEntity
8
0
100
AcDbSpline
70
0
71
2
72
6
73
3
74
0
42
0.000000001
43
0.0000000001
44
0.0000000001
40
0
40
0
40
0
40
1
40
1
40
1
10
-97.560071395979421
20
113.79636344268624
30
0
10
-99.35854141627361
20
113.79636344268624
30
0
10
-100.48736755763103
20
115.21217879607977
30
0
0
SPLINE
5
632
100
AcDbEntity
8
0
100
AcDbSpline
70
0
71
2
72
6
73
3
74
0
42
0.000000001
43
0.0000000001
44
0.0000000001
40
0
40
0
40
0
40
1
40
1
40
1
10
-100.48736755763103
20
115.21217879607977
30
0
10
-101.65445988093425
20
116.66625556304754
30
0
10
-101.65445988093425
20
118.84738501861395
30
0
0
SPLINE
5
633
100
AcDbEntity
8
0
100
AcDbSpline
70
0
71
2
72
6
73
3
74
0
42
0.000000001
43
0.0000000001
44
0.0000000001
40
0
40
0
40
0
40
1
40
1
40
1
10
-101.65445988093425
20
118.84738501861395
30
0
10
-101.65445988093425
20
120.1866680081159
30
0
10
-101.1570102444749
20
121.52595099761785
30
0
0
SPLINE
5
634
100
AcDbEntity
8
0
100
AcDbSpline
70
0
71
2
72
6
73
3
74
0
42
0.000000001
43
0.0000000001
44
0.0000000001
40
0
40
0
40
0
40
1
40
1
40
1
10
-101.1570102444749
20
121.52595099761785
30
0
10
-100.92741911326459
20
122.21472319915594
30
0
10
-100.35343949709943
20
123.19049414947332
30
0
0
LINE
5
635
100
AcDbEntity
8
0
100
AcDbLine
10
-78.140428709135506
20
89.258740514066872
30
0
11
-78.140428709135506
21
90.731955140379128
31
0
0
LINE
5
636
100
AcDbEntity
8
0
100
AcDbLine
10
-78.140428709135506
20
90.731955140379128
30
0
11
-63.14042870913552
21
96.318688958433341
31
0
0
LINE
5
637
100
AcDbEntity
8
0
100
AcDbLine
10
-63.140428709135527
20
96.318688958433341
30
0
11
-63.140428709135527
21
94.558485120084953
31
0
0
LINE
5
638
100
AcDbEntity
8
0
100
AcDbLine
10
-63.14042870913552
20
94.558485120084953
30
0
11
-68.267980264769065
21
92.760015099790763
31
0
0
LINE
5
639
100
AcDbEntity
8
0
100
AcDbLine
10
-68.267980264769065
20
92.760015099790763
30
0
11
-68.267980264769051
21
87.058485120084953
31
0
0
LINE
5
640
100
AcDbEntity
8
0
100
AcDbLine
10
-68.267980264769051
20
87.058485120084953
30
0
11
-63.140428709135499
21
85.183485120084953
31
0
0
LINE
5
641
100
AcDbEntity
8
0
100
AcDbLine
10
-63.140428709135499
20
85.183485120084953
30
0
11
-63.140428709135499
21
83.518944352415275
31
0
0
LINE
5
642
100
AcDbEntity
8
0
100
AcDbLine
10
-63.140428709135499
20
83.518944352415275
30
0
11
-78.140428709135506
21
89.258740514066872
31
0
0
LINE
5
643
100
AcDbEntity
8
0
100
AcDbLine
10
-69.588132547483909
20
92.339096635130119
30
0
11
-76.341958688841316
21
90.024047463682365
31
0
0
LINE
5
644
100
AcDbEntity
8
0
100
AcDbLine
10
-76.341958688841316
20
90.024047463682351
30
0
11
-69.588132547483895
21
87.517669766691384
31
0
0
LINE
5
645
100
AcDbEntity
8
0
100
AcDbLine
10
-69.588132547483895
20
87.517669766691398
30
0
11
-69.588132547483895
21
92.339096635130119
31
0
0
LINE
5
646
100
AcDbEntity
8
0
100
AcDbLine
10
-54.875124143705776
20
62.520860403326239
30
0
11
-54.875124143705783
21
67.667543261793341
31
0
0
SPLINE
5
647
100
AcDbEntity
8
0
100
AcDbSpline
70
0
71
2
72
6
73
3
74
0
42
0.000000001
43
0.0000000001
44
0.0000000001
40
0
40
0
40
0
40
1
40
1
40
1
10
-54.875124143705783
20
67.667543261793341
30
0
10
-54.875124143705783
20
69.599941342619147
30
0
10
-54.090684103117404
20
70.728767483976569
30
0
0
SPLINE
5
648
100
AcDbEntity
8
0
100
AcDbSpline
70
0
71
2
72
6
73
3
74
0
42
0.000000001
43
0.0000000001
44
0.0000000001
40
0
40
0
40
0
40
1
40
1
40
1
10
-54.090684103117404
20
70.728767483976569
30
0
10
-53.153184103117411
20
72.048920958784308
30
0
10
-51.412113355741923
20
72.048920958784322
30
0
0
SPLINE
5
649
100
AcDbEntity
8
0
100
AcDbSpline
70
0
71
2
72
6
73
3
74
0
42
0.000000001
43
0.0000000001
44
0.0000000001
40
0
40
0
40
0
40
1
40
1
40
1
10
-51.412113355741923
20
72.048920958784322
30
0
10
-49.958031820402567
20
72.048920958784322
30
0
10
-48.96313493166965
20
71.111420958784322
30
0
0
SPLINE
5
650
100
AcDbEntity
8
0
100
AcDbSpline
70
0
71
2
72
6
73
3
74
0
42
0.000000001
43
0.0000000001
44
0.0000000001
40
0
40
0
40
0
40
1
40
1
40
1
10
-48.96313493166965
20
71.111420958784322
30
0
10
-48.657010244474826
20
70.843563645628194
30
0
10
-48.408287214384494
20
70.44177827194045
30
0
0
SPLINE
5
651
100
AcDbEntity
8
0
100
AcDbSpline
70
0
71
2
72
6
73
3
74
0
42
0.000000001
43
0.0000000001
44
0.0000000001
40
0
40
0
40
0
40
1
40
1
40
1
10
-48.408287214384494
20
70.44177827194045
30
0
10
-48.159564184294162
20
70.059124797132711
30
0
10
-47.929971860990939
20
69.561675756719808
30
0
0
SPLINE
5
652
100
AcDbEntity
8
0
100
AcDbSpline
70
0
71
2
72
6
73
3
74
0
42
0.000000001
43
0.0000000001
44
0.0000000001
40
0
40
0
40
0
40
1
40
1
40
1
10
-47.929971860990939
20
69.561675756719808
30
0
10
-47.604716467009005
20
71.532338231352071
30
0
10
-46.38022725497288
20
72.412441342619161
30
0
0
SPLINE
5
653
100
AcDbEntity
8
0
100
AcDbSpline
70
0
71
2
72
6
73
3
74
0
42
0.000000001
43
0.0000000001
44
0.0000000001
40
0
40
0
40
0
40
1
40
1
40
1
10
-46.38022725497288
20
72.412441342619161
30
0
10
-45.44272725497288
20
73.082084029463033
30
0
10
-44.275634931669657
20
73.082084029463033
30
0
0
SPLINE
5
654
100
AcDbEntity
8
0
100
AcDbSpline
70
0
71
2
72
6
73
3
74
0
42
0.000000001
43
0.0000000001
44
0.0000000001
40
0
40
0
40
0
40
1
40
1
40
1
10
-44.275634931669657
20
73.082084029463033
30
0
10
-42.381499456510966
20
73.082084029463033
30
0
10
-41.118748830900607
20
71.647134393003682
30
0
0
SPLINE
5
655
100
AcDbEntity
8
0
100
AcDbSpline
70
0
71
2
72
6
73
3
74
0
42
0.000000001
43
0.0000000001
44
0.0000000001
40
0
40
0
40
0
40
1
40
1
40
1
10
-41.118748830900607
20
71.647134393003682
30
0
10
-39.875124143705783
20
70.269584029463033
30
0
10
-39.875124143705783
20
68.298920958784322
30
0
0
LINE
5
656
100
AcDbEntity
8
0
100
AcDbLine
10
-39.875124143705783
20
68.298920958784322
30
0
11
-39.875124143705776
21
62.520860403326253
31
0
0
LINE
5
657
100
AcDbEntity
8
0
100
AcDbLine
10
-39.875124143705776
20
62.520860403326253
30
0
11
-54.875124143705776
21
62.520860403326239
31
0
0
LINE
5
658
100
AcDbEntity
8
0
100
AcDbLine
10
-53.554971860990939
20
67.57188019111463
30
0
11
-53.554971860990932
21
64.032339721468176
31
0
0
LINE
5
659
100
AcDbEntity
8
0
100
AcDbLine
10
-53.554971860990932
20
64.032339721468176
30
0
11
-48.408287214384487
21
64.03233972146819
31
0
0
LINE
5
660
100
AcDbEntity
8
0
100
AcDbLine
10
-48.408287214384487
20
64.03233972146819
30
0
11
-48.408287214384494
21
66.883104413297872
31
0
0
SPLINE
5
661
100
AcDbEntity
8
0
100
AcDbSpline
70
0
71
2
72
6
73
3
74
0
42
0.000000001
43
0.0000000001
44
0.0000000001
40
0
40
0
40
0
40
1
40
1
40
1
10
-48.408287214384487
20
66.883104413297872
30
0
10
-48.408287214384494
20
68.605043261793355
30
0
10
-49.173591779814181
20
69.523410766866903
30
0
0
SPLINE
5
662
100
AcDbEntity
8
0
100
AcDbSpline
70
0
71
2
72
6
73
3
74
0
42
0.000000001
43
0.0000000001
44
0.0000000001
40
0
40
0
40
0
40
1
40
1
40
1
10
-49.173591779814181
20
69.523410766866903
30
0
10
-49.95803182040256
20
70.44177827194045
30
0
10
-51.182521032438693
20
70.44177827194045
30
0
0
SPLINE
5
663
100
AcDbEntity
8
0
100
AcDbSpline
70
0
71
2
72
6
73
3
74
0
42
0.000000001
43
0.0000000001
44
0.0000000001
40
0
40
0
40
0
40
1
40
1
40
1
10
-51.182521032438693
20
70.44177827194045
30
0
10
-52.139156507597384
20
70.44177827194045
30
0
10
-52.82792870913547
20
69.791267483976569
30
0
0
SPLINE
5
664
100
AcDbEntity
8
0
100
AcDbSpline
70
0
71
2
72
6
73
3
74
0
42
0.000000001
43
0.0000000001
44
0.0000000001
40
0
40
0
40
0
40
1
40
1
40
1
10
-52.82792870913547
20
69.791267483976569
30
0
10
-53.554971860990939
20
69.006829231527533
30
0
10
-53.554971860990939
20
67.57188019111463
30
0
0
LINE
5
665
100
AcDbEntity
8
0
100
AcDbLine
10
-47.08813493166965
20
67.304022877958516
30
0
11
-47.088134931669643
21
64.03233972146819
31
0
0
LINE
5
666
100
AcDbEntity
8
0
100
AcDbLine
10
-47.088134931669643
20
64.03233972146819
30
0
11
-41.195276426420619
21
64.03233972146819
31
0
0
LINE
5
667
100
AcDbEntity
8
0
100
AcDbLine
10
-41.195276426420619
20
64.03233972146819
30
0
11
-41.195276426420627
21
67.667543261793355
31
0
0
SPLINE
5
668
100
AcDbEntity
8
0
100
AcDbSpline
70
0
71
2
72
6
73
3
74
0
42
0.000000001
43
0.0000000001
44
0.0000000001
40
0
40
0
40
0
40
1
40
1
40
1
10
-41.195276426420627
20
67.667543261793355
30
0
10
-41.195276426420627
20
69.31295153453658
30
0
10
-42.017982648954806
20
70.365247100141744
30
0
0
SPLINE
5
669
100
AcDbEntity
8
0
100
AcDbSpline
70
0
71
2
72
6
73
3
74
0
42
0.000000001
43
0.0000000001
44
0.0000000001
40
0
40
0
40
0
40
1
40
1
40
1
10
-42.017982648954806
20
70.365247100141744
30
0
10
-42.898080991850314
20
71.417543261793355
30
0
10
-44.256499456510959
20
71.417543261793355
30
0
0
SPLINE
5
670
100
AcDbEntity
8
0
100
AcDbSpline
70
0
71
2
72
6
73
3
74
0
42
0.000000001
43
0.0000000001
44
0.0000000001
40
0
40
0
40
0
40
1
40
1
40
1
10
-44.256499456510959
20
71.417543261793355
30
0
10
-45.634053396330295
20
71.417543261793355
30
0
10
-46.361091779814181
20
70.346115201261739
30
0
0
SPLINE
5
671
100
AcDbEntity
8
0
100
AcDbSpline
70
0
71
2
72
6
73
3
74
0
42
0.000000001
43
0.0000000001
44
0.0000000001
40
0
40
0
40
0
40
1
40
1
40
1
10
-46.361091779814181
20
70.346115201261739
30
0
10
-47.08813493166965
20
69.293819039610128
30
0
10
-47.08813493166965
20
67.304022877958516
30
0
0
SPLINE
5
672
100
AcDbEntity
8
0
100
AcDbSpline
70
0
71
2
72
6
73
3
74
0
42
0.000000001
43
0.0000000001
44
0.0000000001
40
0
40
0
40
0
40
1
40
1
40
1
10
-39.626401113615479
20
81.906061738279561
30
0
10
-39.626401113615472
20
79.304020970609884
30
0
10
-41.654461073027093
20
77.352490990904073
30
0
0
SPLINE
5
673
100
AcDbEntity
8
0
100
AcDbSpline
70
0
71
2
72
6
73
3
74
0
42
0.000000001
43
0.0000000001
44
0.0000000001
40
0
40
0
40
0
40
1
40
1
40
1
10
-41.654461073027093
20
77.352490990904073
30
0
10
-43.854716467009013
20
75.209633677747945
30
0
10
-47.336857961759989
20
75.209633677747945
30
0
0
SPLINE
5
674
100
AcDbEntity
8
0
100
AcDbSpline
70
0
71
2
72
6
73
3
74
0
42
0.000000001
43
0.0000000001
44
0.0000000001
40
0
40
0
40
0
40
1
40
1
40
1
10
-47.336857961759989
20
75.209633677747945
30
0
10
-50.665939497099345
20
75.209633677747945
30
0
10
-52.961857961760003
20
77.218561738279561
30
0
0
SPLINE
5
675
100
AcDbEntity
8
0
100
AcDbSpline
70
0
71
2
72
6
73
3
74
0
42
0.000000001
43
0.0000000001
44
0.0000000001
40
0
40
0
40
0
40
1
40
1
40
1
10
-52.961857961760003
20
77.218561738279561
30
0
10
-55.123847173796136
20
79.170092910078253
30
0
10
-55.123847173796143
20
81.848664849546651
30
0
0
SPLINE
5
676
100
AcDbEntity
8
0
100
AcDbSpline
70
0
71
2
72
6
73
3
74
0
42
0.000000001
43
0.0000000001
44
0.0000000001
40
0
40
0
40
0
40
1
40
1
40
1
10
-55.123847173796143
20
81.848664849546651
30
0
10
-55.123847173796143
20
84.56550177886794
30
0
10
-53.000124143705818
20
86.517031758573751
30
0
0
SPLINE
5
677
100
AcDbEntity
8
0
100
AcDbSpline
70
0
71
2
72
6
73
3
74
0
42
0.000000001
43
0.0000000001
44
0.0000000001
40
0
40
0
40
0
40
1
40
1
40
1
10
-53.000124143705818
20
86.517031758573751
30
0
10
-50.761602567778084
20
88.525958627012471
30
0
10
-47.355993436918709
20
88.525958627012471
30
0
0
SPLINE
5
678
100
AcDbEntity
8
0
100
AcDbSpline
70
0
71
2
72
6
73
3
74
0
42
0.000000001
43
0.0000000001
44
0.0000000001
40
0
40
0
40
0
40
1
40
1
40
1
10
-47.355993436918709
20
88.525958627012471
30
0
10
-43.81645028506324
20
88.525958627012471
30
0
10
-41.616194891081307
20
86.344838708189229
30
0
0
SPLINE
5
679
100
AcDbEntity
8
0
100
AcDbSpline
70
0
71
2
72
6
73
3
74
0
42
0.000000001
43
0.0000000001
44
0.0000000001
40
0
40
0
40
0
40
1
40
1
40
1
10
-41.616194891081307
20
86.344838708189229
30
0
10
-39.626401113615479
20
84.412439435270528
30
0
10
-39.626401113615479
20
81.906061738279561
30
0
0
SPLINE
5
680
100
AcDbEntity
8
0
100
AcDbSpline
70
0
71
2
72
6
73
3
74
0
42
0.000000001
43
0.0000000001
44
0.0000000001
40
0
40
0
40
0
40
1
40
1
40
1
10
-41.042216467009034
20
81.79126557662795
30
0
10
-41.042216467009034
20
83.914990990904073
30
0
10
-42.821553396330323
20
85.407338708189229
30
0
0
SPLINE
5
681
100
AcDbEntity
8
0
100
AcDbSpline
70
0
71
2
72
6
73
3
74
0
42
0.000000001
43
0.0000000001
44
0.0000000001
40
0
40
0
40
0
40
1
40
1
40
1
10
-42.821553396330323
20
85.407338708189229
30
0
10
-44.63915650759742
20
86.918817132261495
30
0
10
-47.355993436918709
20
86.918817132261495
30
0
0
SPLINE
5
682
100
AcDbEntity
8
0
100
AcDbSpline
70
0
71
2
72
6
73
3
74
0
42
0.000000001
43
0.0000000001
44
0.0000000001
40
0
40
0
40
0
40
1
40
1
40
1
10
-47.355993436918709
20
86.918817132261495
30
0
10
-48.676145719633553
20
86.918817132261495
30
0
10
-49.804971860990975
20
86.55529555633376
30
0
0
SPLINE
5
683
100
AcDbEntity
8
0
100
AcDbSpline
70
0
71
2
72
6
73
3
74
0
42
0.000000001
43
0.0000000001
44
0.0000000001
40
0
40
0
40
0
40
1
40
1
40
1
10
-49.804971860990975
20
86.55529555633376
30
0
10
-50.933798002348389
20
86.191776364591817
30
0
10
-51.85216729556128
20
85.464735596922139
30
0
0
SPLINE
5
684
100
AcDbEntity
8
0
100
AcDbSpline
70
0
71
2
72
6
73
3
74
0
42
0.000000001
43
0.0000000001
44
0.0000000001
40
0
40
0
40
0
40
1
40
1
40
1
10
-51.85216729556128
20
85.464735596922139
30
0
10
-53.708031820402589
20
84.010654061582784
30
0
10
-53.708031820402589
20
81.86779555633376
30
0
0
SPLINE
5
685
100
AcDbEntity
8
0
100
AcDbSpline
70
0
71
2
72
6
73
3
74
0
42
0.000000001
43
0.0000000001
44
0.0000000001
40
0
40
0
40
0
40
1
40
1
40
1
10
-53.708031820402589
20
81.86779555633376
30
0
10
-53.708031820402582
20
79.744072526243414
30
0
10
-51.852167295561273
20
78.270857899931173
30
0
0
SPLINE
5
686
100
AcDbEntity
8
0
100
AcDbSpline
70
0
71
2
72
6
73
3
74
0
42
0.000000001
43
0.0000000001
44
0.0000000001
40
0
40
0
40
0
40
1
40
1
40
1
10
-51.852167295561273
20
78.270857899931173
30
0
10
-50.034564184294183
20
76.816776364591817
30
0
10
-47.317727254972894
20
76.816776364591817
30
0
0
SPLINE
5
687
100
AcDbEntity
8
0
100
AcDbSpline
70
0
71
2
72
6
73
3
74
0
42
0.000000001
43
0.0000000001
44
0.0000000001
40
0
40
0
40
0
40
1
40
1
40
1
10
-47.317727254972894
20
76.816776364591817
30
0
10
-44.486091779814203
20
76.816776364591817
30
0
10
-42.706754850492914
20
78.347389071729879
30
0
0
SPLINE
5
688
100
AcDbEntity
8
0
100
AcDbSpline
70
0
71
2
72
6
73
3
74
0
42
0.000000001
43
0.0000000001
44
0.0000000001
40
0
40
0
40
0
40
1
40
1
40
1
10
-42.706754850492914
20
78.347389071729879
30
0
10
-41.042216467009027
20
79.782338708189229
30
0
10
-41.042216467009034
20
81.79126557662795
30
0
0
LINE
5
689
100
AcDbEntity
8
0
100
AcDbLine
10
-54.875124143705818
20
90.710907548216085
30
0
11
-54.875124143705818
21
92.528510659483175
31
0
0
LINE
5
690
100
AcDbEntity
8
0
100
AcDbLine
10
-54.875124143705833
20
92.528510659483175
30
0
11
-48.982265638456816
21
96.527233689573507
31
0
0
LINE
5
691
100
AcDbEntity
8
0
100
AcDbLine
10
-48.982265638456816
20
96.527233689573507
30
0
11
-54.875124143705847
21
100.52595671966384
31
0
0
LINE
5
692
100
AcDbEntity
8
0
100
AcDbLine
10
-54.87512414370584
20
100.52595671966384
30
0
11
-54.87512414370584
21
102.42008742645095
31
0
0
LINE
5
693
100
AcDbEntity
8
0
100
AcDbLine
10
-54.875124143705847
20
102.42008742645095
30
0
11
-47.910836385832305
21
97.445600598600606
31
0
0
LINE
5
694
100
AcDbEntity
8
0
100
AcDbLine
10
-47.910836385832305
20
97.445600598600606
30
0
11
-39.875124143705854
21
103.20452746703933
31
0
0
LINE
5
695
100
AcDbEntity
8
0
100
AcDbLine
10
-39.875124143705847
20
103.20452746703933
30
0
11
-39.87512414370584
21
101.23386439636062
31
0
0
LINE
5
696
100
AcDbEntity
8
0
100
AcDbLine
10
-39.875124143705847
20
101.23386439636062
30
0
11
-46.820276426420683
21
96.527233689573507
31
0
0
LINE
5
697
100
AcDbEntity
8
0
100
AcDbLine
10
-46.820276426420683
20
96.527233689573507
30
0
11
-39.875124143705833
21
91.820600598600606
31
0
0
LINE
5
698
100
AcDbEntity
8
0
100
AcDbLine
10
-39.875124143705833
20
91.820600598600606
30
0
11
-39.875124143705825
21
89.926469891813497
31
0
0
LINE
5
699
100
AcDbEntity
8
0
100
AcDbLine
10
-39.875124143705818
20
89.926469891813497
30
0
11
-47.910836385832297
21
95.647130578306417
31
0
0
LINE
5
700
100
AcDbEntity
8
0
100
AcDbLine
10
-47.910836385832297
20
95.647130578306417
30
0
11
-54.875124143705818
21
90.710907548216085
31
0
0
LINE
5
701
100
AcDbEntity
8
0
100
AcDbLine
10
-54.875124143705861
20
113.31422385528396
30
0
11
-54.875124143705861
21
114.94050082519362
31
0
0
LINE
5
702
100
AcDbEntity
8
0
100
AcDbLine
10
-54.875124143705861
20
114.94050082519362
30
0
11
-43.663390325651662
21
114.74916991546463
31
0
0
LINE
5
703
100
AcDbEntity
8
0
100
AcDbLine
10
-43.663390325651662
20
114.74916991546462
30
0
11
-43.663390325651662
21
113.48641928985427
31
0
0
LINE
5
704
100
AcDbEntity
8
0
100
AcDbLine
10
-43.663390325651662
20
113.48641928985427
30
0
11
-54.875124143705861
21
113.31422385528393
31
0
0
SPLINE
5
705
100
AcDbEntity
8
0
100
AcDbSpline
70
0
71
2
72
6
73
3
74
0
42
0.000000001
43
0.0000000001
44
0.0000000001
40
0
40
0
40
0
40
1
40
1
40
1
10
-39.817727254972951
20
114.07952842071364
30
0
10
-39.817727254972951
20
113.6203437741072
30
0
10
-40.200379537687795
20
113.37162074401687
30
0
0
SPLINE
5
706
100
AcDbEntity
8
0
100
AcDbSpline
70
0
71
2
72
6
73
3
74
0
42
0.000000001
43
0.0000000001
44
0.0000000001
40
0
40
0
40
0
40
1
40
1
40
1
10
-40.200379537687795
20
113.37162074401687
30
0
10
-40.60216729556133
20
113.14202842071364
30
0
10
-41.099613355741994
20
113.14202842071364
30
0
0
SPLINE
5
707
100
AcDbEntity
8
0
100
AcDbSpline
70
0
71
2
72
6
73
3
74
0
42
0.000000001
43
0.0000000001
44
0.0000000001
40
0
40
0
40
0
40
1
40
1
40
1
10
-41.099613355741994
20
113.14202842071364
30
0
10
-41.673591779814259
20
113.14202842071364
30
0
10
-42.094510244474904
20
113.39075621917556
30
0
0
SPLINE
5
708
100
AcDbEntity
8
0
100
AcDbSpline
70
0
71
2
72
6
73
3
74
0
42
0.000000001
43
0.0000000001
44
0.0000000001
40
0
40
0
40
0
40
1
40
1
40
1
10
-42.094510244474904
20
113.39075621917556
30
0
10
-42.515428709135549
20
113.63947924926589
30
0
10
-42.515428709135549
20
114.13693007781814
30
0
0
SPLINE
5
709
100
AcDbEntity
8
0
100
AcDbSpline
70
0
71
2
72
6
73
3
74
0
42
0.000000001
43
0.0000000001
44
0.0000000001
40
0
40
0
40
0
40
1
40
1
40
1
10
-42.515428709135549
20
114.13693007781814
30
0
10
-42.515428709135549
20
114.57697924926589
30
0
10
-42.094510244474904
20
114.78743609741042
30
0
0
SPLINE
5
710
100
AcDbEntity
8
0
100
AcDbSpline
70
0
71
2
72
6
73
3
74
0
42
0.000000001
43
0.0000000001
44
0.0000000001
40
0
40
0
40
0
40
1
40
1
40
1
10
-42.094510244474904
20
114.78743609741042
30
0
10
-41.692727254972951
20
115.01702842071364
30
0
10
-41.195276426420705
20
115.01702842071364
30
0
0
SPLINE
5
711
100
AcDbEntity
8
0
100
AcDbSpline
70
0
71
2
72
6
73
3
74
0
42
0.000000001
43
0.0000000001
44
0.0000000001
40
0
40
0
40
0
40
1
40
1
40
1
10
-41.195276426420705
20
115.01702842071364
30
0
10
-40.621298002348439
20
115.01702842071364
30
0
10
-40.219510244474904
20
114.76830539062331
30
0
0
SPLINE
5
712
100
AcDbEntity
8
0
100
AcDbSpline
70
0
71
2
72
6
73
3
74
0
42
0.000000001
43
0.0000000001
44
0.0000000001
40
0
40
0
40
0
40
1
40
1
40
1
10
-40.219510244474904
20
114.76830539062331
30
0
10
-39.817727254972951
20
114.51958236053298
30
0
10
-39.817727254972951
20
114.07952842071364
30
0
0
LINE
5
713
100
AcDbEntity
8
0
100
AcDbLine
10
29.759373278541986
20
266.8424776743185
30
0
11
34.906056137009088
21
266.8424776743185
31
0
0
SPLINE
5
714
100
AcDbEntity
8
0
100
AcDbSpline
70
0
71
2
72
6
73
3
74
0
42
0.000000001
43
0.0000000001
44
0.0000000001
40
0
40
0
40
0
40
1
40
1
40
1
10
34.906056137009081
20
266.84247767431856
30
0
10
36.838454217834887
20
266.84247767431856
30
0
10
37.967280359192316
20
266.05803882582308
30
0
0
SPLINE
5
715
100
AcDbEntity
8
0
100
AcDbSpline
70
0
71
2
72
6
73
3
74
0
42
0.000000001
43
0.0000000001
44
0.0000000001
40
0
40
0
40
0
40
1
40
1
40
1
10
37.967280359192316
20
266.05803882582308
30
0
10
39.287433834000055
20
265.12053882582308
30
0
10
39.287433834000055
20
263.37946807844759
30
0
0
SPLINE
5
716
100
AcDbEntity
8
0
100
AcDbSpline
70
0
71
2
72
6
73
3
74
0
42
0.000000001
43
0.0000000001
44
0.0000000001
40
0
40
0
40
0
40
1
40
1
40
1
10
39.287433834000055
20
263.37946807844759
30
0
10
39.287433834000062
20
261.92538654310823
30
0
10
38.349933834000069
20
260.93048846228243
30
0
0
SPLINE
5
717
100
AcDbEntity
8
0
100
AcDbSpline
70
0
71
2
72
6
73
3
74
0
42
0.000000001
43
0.0000000001
44
0.0000000001
40
0
40
0
40
0
40
1
40
1
40
1
10
38.349933834000069
20
260.93048846228243
30
0
10
38.082076520843941
20
260.62436615927339
30
0
10
37.680291147156197
20
260.37564193709017
30
0
0
SPLINE
5
718
100
AcDbEntity
8
0
100
AcDbSpline
70
0
71
2
72
6
73
3
74
0
42
0.000000001
43
0.0000000001
44
0.0000000001
40
0
40
0
40
0
40
1
40
1
40
1
10
37.680291147156197
20
260.37564193709017
30
0
10
37.297637672348458
20
260.12691711886049
30
0
10
36.800188035889107
20
259.89732539160372
30
0
0
SPLINE
5
719
100
AcDbEntity
8
0
100
AcDbSpline
70
0
71
2
72
6
73
3
74
0
42
0.000000001
43
0.0000000001
44
0.0000000001
40
0
40
0
40
0
40
1
40
1
40
1
10
36.800188035889107
20
259.89732539160372
30
0
10
38.770851106567818
20
259.57207059366823
30
0
10
39.650954217834908
20
258.34758078558565
30
0
0
SPLINE
5
720
100
AcDbEntity
8
0
100
AcDbSpline
70
0
71
2
72
6
73
3
74
0
42
0.000000001
43
0.0000000001
44
0.0000000001
40
0
40
0
40
0
40
1
40
1
40
1
10
39.650954217834908
20
258.34758078558565
30
0
10
40.320596904678787
20
257.41008078558565
30
0
10
40.320596904678787
20
256.24298846228243
30
0
0
SPLINE
5
721
100
AcDbEntity
8
0
100
AcDbSpline
70
0
71
2
72
6
73
3
74
0
42
0.000000001
43
0.0000000001
44
0.0000000001
40
0
40
0
40
0
40
1
40
1
40
1
10
40.320596904678787
20
256.24298846228243
30
0
10
40.320596904678787
20
254.34885656340242
30
0
10
38.885647268219444
20
253.08610116942049
30
0
0
SPLINE
5
722
100
AcDbEntity
8
0
100
AcDbSpline
70
0
71
2
72
6
73
3
74
0
42
0.000000001
43
0.0000000001
44
0.0000000001
40
0
40
0
40
0
40
1
40
1
40
1
10
38.885647268219444
20
253.08610116942049
30
0
10
37.508096904678794
20
251.84247886641145
30
0
10
35.537433834000083
20
251.84247886641145
30
0
0
LINE
5
723
100
AcDbEntity
8
0
100
AcDbLine
10
35.537433834000083
20
251.84247886641145
30
0
11
29.759373278542014
21
251.84247886641145
31
0
0
LINE
5
724
100
AcDbEntity
8
0
100
AcDbLine
10
29.759373278542014
20
251.84247886641143
30
0
11
29.759373278541979
21
266.8424776743185
31
0
0
LINE
5
725
100
AcDbEntity
8
0
100
AcDbLine
10
34.810393066330377
20
265.52232539160372
30
0
11
31.270852298660699
21
265.52232539160372
31
0
0
LINE
5
726
100
AcDbEntity
8
0
100
AcDbLine
10
31.270852298660703
20
265.52232539160372
30
0
11
31.270852298660717
21
260.37564193709017
31
0
0
LINE
5
727
100
AcDbEntity
8
0
100
AcDbLine
10
31.270852298660714
20
260.37564193709017
30
0
11
34.121617288513619
21
260.37564193709017
31
0
0
SPLINE
5
728
100
AcDbEntity
8
0
100
AcDbSpline
70
0
71
2
72
6
73
3
74
0
42
0.000000001
43
0.0000000001
44
0.0000000001
40
0
40
0
40
0
40
1
40
1
40
1
10
34.121617288513619
20
260.37564193709017
30
0
10
35.843556137009102
20
260.37564193709017
30
0
10
36.761924238129097
20
261.14094769461275
30
0
0
SPLINE
5
729
100
AcDbEntity
8
0
100
AcDbSpline
70
0
71
2
72
6
73
3
74
0
42
0.000000001
43
0.0000000001
44
0.0000000001
40
0
40
0
40
0
40
1
40
1
40
1
10
36.761924238129097
20
261.14094769461275
30
0
10
37.68029114715619
20
261.92538654310823
30
0
10
37.680291147156183
20
263.14987575514436
30
0
0
SPLINE
5
730
100
AcDbEntity
8
0
100
AcDbSpline
70
0
71
2
72
6
73
3
74
0
42
0.000000001
43
0.0000000001
44
0.0000000001
40
0
40
0
40
0
40
1
40
1
40
1
10
37.680291147156183
20
263.14987575514436
30
0
10
37.680291147156183
20
264.10650884611726
30
0
10
37.029780359192316
20
264.79528462393404
30
0
0
SPLINE
5
731
100
AcDbEntity
8
0
100
AcDbSpline
70
0
71
2
72
6
73
3
74
0
42
0.000000001
43
0.0000000001
44
0.0000000001
40
0
40
0
40
0
40
1
40
1
40
1
10
37.029780359192316
20
264.79528462393404
30
0
10
36.245342702789728
20
265.52232539160372
30
0
10
34.810393066330377
20
265.52232539160372
30
0
0
LINE
5
732
100
AcDbEntity
8
0
100
AcDbLine
10
34.542535753174263
20
259.05548846228243
30
0
11
31.270852298660714
21
259.05548846228243
31
0
0
LINE
5
733
100
AcDbEntity
8
0
100
AcDbLine
10
31.270852298660717
20
259.05548846228243
30
0
11
31.270852298660728
21
253.16263234121919
31
0
0
LINE
5
734
100
AcDbEntity
8
0
100
AcDbLine
10
31.270852298660728
20
253.16263234121919
30
0
11
34.906056137009116
21
253.16263234121919
31
0
0
SPLINE
5
735
100
AcDbEntity
8
0
100
AcDbSpline
70
0
71
2
72
6
73
3
74
0
42
0.000000001
43
0.0000000001
44
0.0000000001
40
0
40
0
40
0
40
1
40
1
40
1
10
34.906056137009116
20
253.16263234121919
30
0
10
36.551465005798789
20
253.16263234121919
30
0
10
37.603759975357505
20
253.98533617956758
30
0
0
SPLINE
5
736
100
AcDbEntity
8
0
100
AcDbSpline
70
0
71
2
72
6
73
3
74
0
42
0.000000001
43
0.0000000001
44
0.0000000001
40
0
40
0
40
0
40
1
40
1
40
1
10
37.603759975357505
20
253.98533617956758
30
0
10
38.656056137009109
20
254.86543809874178
30
0
10
38.656056137009109
20
256.22385656340242
30
0
0
SPLINE
5
737
100
AcDbEntity
8
0
100
AcDbSpline
70
0
71
2
72
6
73
3
74
0
42
0.000000001
43
0.0000000001
44
0.0000000001
40
0
40
0
40
0
40
1
40
1
40
1
10
38.656056137009109
20
256.22385656340242
30
0
10
38.656056137009102
20
257.60140692694307
30
0
10
37.584628076477486
20
258.32844769461275
30
0
0
SPLINE
5
738
100
AcDbEntity
8
0
100
AcDbSpline
70
0
71
2
72
6
73
3
74
0
42
0.000000001
43
0.0000000001
44
0.0000000001
40
0
40
0
40
0
40
1
40
1
40
1
10
37.584628076477486
20
258.32844769461275
30
0
10
36.532331914825875
20
259.05548846228243
30
0
10
34.542535753174263
20
259.05548846228243
30
0
0
SPLINE
5
739
100
AcDbEntity
8
0
100
AcDbSpline
70
0
71
2
72
6
73
3
74
0
42
0.000000001
43
0.0000000001
44
0.0000000001
40
0
40
0
40
0
40
1
40
1
40
1
10
55.787431211395713
20
251.59375464422826
30
0
10
53.185390443726035
20
251.59375464422826
30
0
10
51.233860464020218
20
253.62181579573277
30
0
0
SPLINE
5
740
100
AcDbEntity
8
0
100
AcDbSpline
70
0
71
2
72
6
73
3
74
0
42
0.000000001
43
0.0000000001
44
0.0000000001
40
0
40
0
40
0
40
1
40
1
40
1
10
51.233860464020218
20
253.62181579573277
30
0
10
49.091001958771194
20
255.82207118971471
30
0
10
49.091001958771187
20
259.30421328051216
30
0
0
SPLINE
5
741
100
AcDbEntity
8
0
100
AcDbSpline
70
0
71
2
72
6
73
3
74
0
42
0.000000001
43
0.0000000001
44
0.0000000001
40
0
40
0
40
0
40
1
40
1
40
1
10
49.091001958771187
20
259.30421328051216
30
0
10
49.091001958771173
20
262.63329421980507
30
0
10
51.099931211395685
20
264.92921268446571
30
0
0
SPLINE
5
742
100
AcDbEntity
8
0
100
AcDbSpline
70
0
71
2
72
6
73
3
74
0
42
0.000000001
43
0.0000000001
44
0.0000000001
40
0
40
0
40
0
40
1
40
1
40
1
10
51.099931211395685
20
264.92921268446571
30
0
10
53.051461191101488
20
267.09120308859474
30
0
10
55.730031938476976
20
267.09120308859474
30
0
0
SPLINE
5
743
100
AcDbEntity
8
0
100
AcDbSpline
70
0
71
2
72
6
73
3
74
0
42
0.000000001
43
0.0000000001
44
0.0000000001
40
0
40
0
40
0
40
1
40
1
40
1
10
55.730031938476976
20
267.09120308859474
30
0
10
58.446868867798266
20
267.09120308859474
30
0
10
60.398398847504083
20
264.96747886641151
30
0
0
SPLINE
5
744
100
AcDbEntity
8
0
100
AcDbSpline
70
0
71
2
72
6
73
3
74
0
42
0.000000001
43
0.0000000001
44
0.0000000001
40
0
40
0
40
0
40
1
40
1
40
1
10
60.398398847504083
20
264.96747886641151
30
0
10
62.407328100128595
20
262.72895848257667
30
0
10
62.407328100128609
20
259.32334577543861
30
0
0
SPLINE
5
745
100
AcDbEntity
8
0
100
AcDbSpline
70
0
71
2
72
6
73
3
74
0
42
0.000000001
43
0.0000000001
44
0.0000000001
40
0
40
0
40
0
40
1
40
1
40
1
10
62.407328100128609
20
259.32334577543861
30
0
10
62.407328100128616
20
255.78380500776893
30
0
10
60.226205797119583
20
253.58354961378697
30
0
0
SPLINE
5
746
100
AcDbEntity
8
0
100
AcDbSpline
70
0
71
2
72
6
73
3
74
0
42
0.000000001
43
0.0000000001
44
0.0000000001
40
0
40
0
40
0
40
1
40
1
40
1
10
60.226205797119583
20
253.58354961378697
30
0
10
58.293806524200889
20
251.59375464422826
30
0
10
55.787431211395713
20
251.59375464422826
30
0
0
SPLINE
5
747
100
AcDbEntity
8
0
100
AcDbSpline
70
0
71
2
72
6
73
3
74
0
42
0.000000001
43
0.0000000001
44
0.0000000001
40
0
40
0
40
0
40
1
40
1
40
1
10
55.672635049744095
20
253.00957118971471
30
0
10
57.796358079834427
20
253.00957118971471
30
0
10
59.288705797119583
20
254.78890811903599
30
0
0
SPLINE
5
748
100
AcDbEntity
8
0
100
AcDbSpline
70
0
71
2
72
6
73
3
74
0
42
0.000000001
43
0.0000000001
44
0.0000000001
40
0
40
0
40
0
40
1
40
1
40
1
10
59.288705797119583
20
254.78890811903599
30
0
10
60.80018660537764
20
256.60650884611732
30
0
10
60.800186605377633
20
259.32334577543861
30
0
0
SPLINE
5
749
100
AcDbEntity
8
0
100
AcDbSpline
70
0
71
2
72
6
73
3
74
0
42
0.000000001
43
0.0000000001
44
0.0000000001
40
0
40
0
40
0
40
1
40
1
40
1
10
60.800186605377633
20
259.32334577543861
30
0
10
60.800186605377618
20
260.6434986541999
30
0
10
60.436665029449884
20
261.77232539160377
30
0
0
SPLINE
5
750
100
AcDbEntity
8
0
100
AcDbSpline
70
0
71
2
72
6
73
3
74
0
42
0.000000001
43
0.0000000001
44
0.0000000001
40
0
40
0
40
0
40
1
40
1
40
1
10
60.436665029449884
20
261.77232539160377
30
0
10
60.07314345352215
20
262.90115153296119
30
0
10
59.346105070038263
20
263.81951963408119
30
0
0
SPLINE
5
751
100
AcDbEntity
8
0
100
AcDbSpline
70
0
71
2
72
6
73
3
74
0
42
0.000000001
43
0.0000000001
44
0.0000000001
40
0
40
0
40
0
40
1
40
1
40
1
10
59.346105070038263
20
263.81951963408119
30
0
10
57.892023534698907
20
265.67538654310829
30
0
10
55.749165029449884
20
265.67538654310829
30
0
0
SPLINE
5
752
100
AcDbEntity
8
0
100
AcDbSpline
70
0
71
2
72
6
73
3
74
0
42
0.000000001
43
0.0000000001
44
0.0000000001
40
0
40
0
40
0
40
1
40
1
40
1
10
55.749165029449884
20
265.67538654310829
30
0
10
53.625441999359552
20
265.67538654310829
30
0
10
52.152227373047296
20
263.81951963408119
30
0
0
SPLINE
5
753
100
AcDbEntity
8
0
100
AcDbSpline
70
0
71
2
72
6
73
3
74
0
42
0.000000001
43
0.0000000001
44
0.0000000001
40
0
40
0
40
0
40
1
40
1
40
1
10
52.152227373047296
20
263.81951963408119
30
0
10
50.698145837707941
20
262.00191771490699
30
0
10
50.698145837707955
20
259.28508078558571
30
0
0
SPLINE
5
754
100
AcDbEntity
8
0
100
AcDbSpline
70
0
71
2
72
6
73
3
74
0
42
0.000000001
43
0.0000000001
44
0.0000000001
40
0
40
0
40
0
40
1
40
1
40
1
10
50.698145837707955
20
259.28508078558571
30
0
10
50.698145837707962
20
256.45344769461281
30
0
10
52.228757352753128
20
254.67411195738438
30
0
0
SPLINE
5
755
100
AcDbEntity
8
0
100
AcDbSpline
70
0
71
2
72
6
73
3
74
0
42
0.000000001
43
0.0000000001
44
0.0000000001
40
0
40
0
40
0
40
1
40
1
40
1
10
52.228757352753128
20
254.67411195738438
30
0
10
53.663705797119583
20
253.00957118971471
30
0
10
55.672635049744095
20
253.00957118971471
30
0
0
LINE
5
756
100
AcDbEntity
8
0
100
AcDbLine
10
71.235133619232599
20
266.84247767431862
30
0
11
73.052736730499689
21
266.84247767431862
31
0
0
LINE
5
757
100
AcDbEntity
8
0
100
AcDbLine
10
73.052736730499689
20
266.84247767431862
30
0
11
77.051459760590021
21
260.94962155325538
31
0
0
LINE
5
758
100
AcDbEntity
8
0
100
AcDbLine
10
77.051459760590021
20
260.94962155325538
30
0
11
81.050182790680338
21
266.84247767431862
31
0
0
LINE
5
759
100
AcDbEntity
8
0
100
AcDbLine
10
81.050182790680338
20
266.84247767431867
30
0
11
82.944313497467448
21
266.84247767431867
31
0
0
LINE
5
760
100
AcDbEntity
8
0
100
AcDbLine
10
82.944313497467448
20
266.84247767431867
30
0
11
77.969824285431329
21
259.87819289667738
31
0
0
LINE
5
761
100
AcDbEntity
8
0
100
AcDbLine
10
77.969824285431329
20
259.87819289667738
30
0
11
83.728753538055855
21
251.84247886641157
31
0
0
LINE
5
762
100
AcDbEntity
8
0
100
AcDbLine
10
83.728753538055855
20
251.84247886641157
30
0
11
81.758090467377144
21
251.84247886641157
31
0
0
LINE
5
763
100
AcDbEntity
8
0
100
AcDbLine
10
81.758090467377144
20
251.84247886641157
30
0
11
77.051459760590021
21
258.78763114912641
31
0
0
LINE
5
764
100
AcDbEntity
8
0
100
AcDbLine
10
77.051459760590035
20
258.78763114912636
30
0
11
72.34482905380294
21
251.84247886641151
31
0
0
LINE
5
765
100
AcDbEntity
8
0
100
AcDbLine
10
72.344829053802926
20
251.84247886641151
30
0
11
70.450693578644234
21
251.84247886641151
31
0
0
LINE
5
766
100
AcDbEntity
8
0
100
AcDbLine
10
70.450693578644234
20
251.84247886641151
30
0
11
76.171356649322931
21
259.87819289667732
31
0
0
LINE
5
767
100
AcDbEntity
8
0
100
AcDbLine
10
76.171356649322931
20
259.87819289667732
30
0
11
71.235133619232585
21
266.84247767431862
31
0
0
LINE
5
768
100
AcDbEntity
8
0
100
AcDbLine
10
93.838449926300456
20
266.84247886641162
30
0
11
95.464726896210124
21
266.84247886641162
31
0
0
LINE
5
769
100
AcDbEntity
8
0
100
AcDbLine
10
95.464726896210124
20
266.84247886641162
30
0
11
95.273395986481134
21
255.6307438562645
31
0
0
LINE
5
770
100
AcDbEntity
8
0
100
AcDbLine
10
95.273395986481148
20
255.6307438562645
30
0
11
94.010645360870797
21
255.6307438562645
31
0
0
LINE
5
771
100
AcDbEntity
8
0
100
AcDbLine
10
94.010645360870797
20
255.6307438562645
30
0
11
93.83844992630047
21
266.84247886641162
31
0
0
SPLINE
5
772
100
AcDbEntity
8
0
100
AcDbSpline
70
0
71
2
72
6
73
3
74
0
42
0.000000001
43
0.0000000001
44
0.0000000001
40
0
40
0
40
0
40
1
40
1
40
1
10
94.603754491730172
20
251.78508078558579
30
0
10
94.144569845123726
20
251.78508078558579
30
0
10
93.895846815033394
20
252.16773426039353
30
0
0
SPLINE
5
773
100
AcDbEntity
8
0
100
AcDbSpline
70
0
71
2
72
6
73
3
74
0
42
0.000000001
43
0.0000000001
44
0.0000000001
40
0
40
0
40
0
40
1
40
1
40
1
10
93.895846815033394
20
252.16773426039353
30
0
10
93.666254491730172
20
252.56951963408127
30
0
10
93.666254491730172
20
253.06696807844773
30
0
0
SPLINE
5
774
100
AcDbEntity
8
0
100
AcDbSpline
70
0
71
2
72
6
73
3
74
0
42
0.000000001
43
0.0000000001
44
0.0000000001
40
0
40
0
40
0
40
1
40
1
40
1
10
93.666254491730172
20
253.06696807844773
30
0
10
93.666254491730172
20
253.64094769461289
30
0
10
93.914982290192086
20
254.06186615927354
30
0
0
SPLINE
5
775
100
AcDbEntity
8
0
100
AcDbSpline
70
0
71
2
72
6
73
3
74
0
42
0.000000001
43
0.0000000001
44
0.0000000001
40
0
40
0
40
0
40
1
40
1
40
1
10
93.914982290192086
20
254.06186615927354
30
0
10
94.163705320282418
20
254.48278462393418
30
0
10
94.661156148834664
20
254.48278462393418
30
0
0
SPLINE
5
776
100
AcDbEntity
8
0
100
AcDbSpline
70
0
71
2
72
6
73
3
74
0
42
0.000000001
43
0.0000000001
44
0.0000000001
40
0
40
0
40
0
40
1
40
1
40
1
10
94.661156148834664
20
254.48278462393418
30
0
10
95.101205320282418
20
254.48278462393418
30
0
10
95.311662168426949
20
254.06186615927354
30
0
0
SPLINE
5
777
100
AcDbEntity
8
0
100
AcDbSpline
70
0
71
2
72
6
73
3
74
0
42
0.000000001
43
0.0000000001
44
0.0000000001
40
0
40
0
40
0
40
1
40
1
40
1
10
95.311662168426949
20
254.06186615927354
30
0
10
95.541254491730172
20
253.66008078558579
30
0
10
95.541254491730172
20
253.16263114912644
30
0
0
SPLINE
5
778
100
AcDbEntity
8
0
100
AcDbSpline
70
0
71
2
72
6
73
3
74
0
42
0.000000001
43
0.0000000001
44
0.0000000001
40
0
40
0
40
0
40
1
40
1
40
1
10
95.541254491730172
20
253.16263114912644
30
0
10
95.541254491730172
20
252.58865272505417
30
0
10
95.29253146163984
20
252.18686615927354
30
0
0
SPLINE
5
779
100
AcDbEntity
8
0
100
AcDbSpline
70
0
71
2
72
6
73
3
74
0
42
0.000000001
43
0.0000000001
44
0.0000000001
40
0
40
0
40
0
40
1
40
1
40
1
10
95.29253146163984
20
252.18686615927354
30
0
10
95.043808431549508
20
251.78508078558579
30
0
10
94.603754491730172
20
251.78508078558579
30
0
0
ENDSEC
0
SECTION
2
OBJECTS
0
DICTIONARY
5
C
100
AcDbDictionary
3
ACAD_GROUP
350
D
3
ACAD_MLINESTYLE
350
17
0
DICTIONARY
5
D
100
AcDbDictionary
0
DICTIONARY
5
1A
330
C
100
AcDbDictionary
0
DICTIONARY
5
17
100
AcDbDictionary
0
ENDSEC
0
EOF
